<?xml version="1.0" encoding="UTF-8"?>
<svg version="1.1" xmlns="http://www.w3.org/2000/svg" width="905" height="956">
<path d="M0 0 C2.14032925 -0.00418003 4.28065629 -0.0096612 6.42097926 -0.01631981 C12.26367891 -0.03070533 18.10623667 -0.02655131 23.94894385 -0.019153 C30.26540922 -0.01440647 36.58184455 -0.02694433 42.89830017 -0.03717041 C54.54482049 -0.05334449 66.19128443 -0.0558098 77.83781252 -0.05086542 C88.60154414 -0.0462984 99.36525909 -0.04691966 110.12899017 -0.05270576 C111.57592976 -0.05346265 113.02286934 -0.05421863 114.46980892 -0.05497371 C116.6505482 -0.05611897 118.83128747 -0.05726886 121.01202674 -0.05843295 C141.27225683 -0.06912948 161.53248138 -0.07387199 181.79271317 -0.06596279 C182.93697894 -0.06551703 182.93697894 -0.06551703 184.1043612 -0.06506227 C190.29814873 -0.06261363 196.4919362 -0.06000189 202.68572366 -0.05737813 C226.83606143 -0.04727907 250.98632964 -0.05562808 275.13665771 -0.07887268 C302.30715307 -0.10498224 329.47760656 -0.11778327 356.64811492 -0.11068493 C359.54883432 -0.10996894 362.44955372 -0.10929454 365.35027313 -0.10864449 C366.06443577 -0.10847468 366.7785984 -0.10830487 367.51440232 -0.10812991 C378.26462491 -0.10583314 389.01480845 -0.11377416 399.76502228 -0.12693596 C412.00057633 -0.14189014 424.23601105 -0.14226108 436.47156844 -0.12486505 C442.70798886 -0.11637289 448.94423568 -0.11416193 455.1806469 -0.1295166 C460.90144231 -0.14342679 466.62191641 -0.13851943 472.34269354 -0.11927737 C474.40043008 -0.1155364 476.45819276 -0.11838365 478.51590589 -0.12888902 C495.18209474 -0.20785336 511.68568795 1.44514226 527.31976318 7.63768005 C528.09489258 7.93360046 528.87002197 8.22952087 529.66864014 8.53440857 C536.64409722 11.27832233 543.13970946 14.72446238 549.66693115 18.38475037 C552.1671667 19.74730909 554.71837288 20.99167144 557.27850342 22.23704529 C601.10880776 43.57085783 637.34791638 75.86903514 661.50726318 118.38768005 C661.8432251 118.96389099 662.17918701 119.54010193 662.52532959 120.1337738 C679.23555876 148.87764924 689.70039619 184.5530904 689.64148426 217.89992332 C689.64383649 218.81900573 689.64618872 219.73808813 689.64861223 220.68502152 C689.65525681 223.75758113 689.65484538 226.83009802 689.6544342 229.90266418 C689.65773568 232.13095623 689.66146185 234.35924767 689.66557568 236.58753836 C689.67557192 242.70613311 689.67930866 248.82471805 689.68196499 254.9433198 C689.6854735 260.8667293 689.69362166 266.79013205 689.70150893 272.71353695 C689.72232258 288.581341 689.73281965 304.44914687 689.74163854 320.31696138 C689.74585085 327.83230101 689.75107216 335.34763985 689.75632307 342.86297881 C689.77421371 368.6163705 689.78920581 394.36976243 689.79664326 420.12315941 C689.79711801 421.73912369 689.79759389 423.35508798 689.79807092 424.97105227 C689.79842548 426.17305197 689.79842548 426.17305197 689.79878721 427.3993345 C689.79998834 431.45892625 689.80120381 435.518518 689.8024292 439.57810974 C689.80266935 440.38373285 689.8029095 441.18935596 689.80315693 442.0193919 C689.8110401 468.10702475 689.83445138 494.194612 689.86698514 520.28222497 C689.90136093 547.89762797 689.92100171 575.51300432 689.9242875 603.12842906 C689.92470499 606.16615654 689.92518455 609.20388401 689.92571068 612.24161148 C689.92583387 612.98952327 689.92595706 613.73743505 689.92608399 614.50801083 C689.92840674 626.49426585 689.94401506 638.48046753 689.96455252 650.46670361 C689.98491047 662.54080497 689.99024113 674.61484293 689.98078189 686.68895827 C689.97605663 693.21782737 689.97800944 699.74655919 689.99754333 706.27540779 C690.2013019 778.43949612 673.98257663 840.67093676 621.94476318 893.20018005 C616.43487975 898.65809111 610.66972868 903.67133979 604.50726318 908.38768005 C603.94813232 908.81790466 603.38900146 909.24812927 602.81292725 909.69139099 C593.75938335 916.62047483 584.42371823 922.76966205 574.50726318 928.38768005 C573.61901855 928.899599 573.61901855 928.899599 572.71282959 929.42185974 C553.18513579 940.618809 531.70850532 947.89561561 509.75726318 952.63768005 C509.06237793 952.78882263 508.36749268 952.93996521 507.65155029 953.09568787 C493.08042095 956.05704137 478.78484928 956.68118068 463.97276306 956.65510559 C461.936419 956.65884942 459.90007637 956.66345384 457.86373597 956.66883624 C452.30821641 956.68099148 446.7527574 956.68081464 441.1972276 956.67844748 C435.18942866 956.67803741 429.18164864 956.68909674 423.17385864 956.69856262 C411.41733275 956.71513338 399.66082189 956.72069644 387.90428676 956.72178738 C378.33967966 956.72270909 368.77507902 956.72683936 359.21047401 956.73318863 C356.44986052 956.73498394 353.68924702 956.73676357 350.92863351 956.73853838 C350.24218195 956.73898048 349.5557304 956.73942258 348.84847728 956.73987807 C329.55636303 956.75217548 310.26425102 956.76008034 290.97213268 956.75919151 C290.24575401 956.75916036 289.51937533 956.7591292 288.77098518 956.7590971 C285.0900415 956.7589309 281.40909782 956.75873282 277.72815415 956.75852768 C276.99720878 956.75848779 276.26626341 956.7584479 275.51316818 956.7584068 C274.03501877 956.75832593 272.55686936 956.75824233 271.07871995 956.75815602 C248.10313415 956.75693168 225.12760747 956.77192659 202.15203857 956.79930115 C176.29076593 956.8301018 150.42953212 956.84722878 124.56823999 956.8453747 C121.80416858 956.84522546 119.04009718 956.84512804 116.27602577 956.84506607 C115.25528318 956.84503111 115.25528318 956.84503111 114.21391953 956.84499544 C103.31874519 956.84493419 92.42362267 956.85764165 81.52846369 956.8749306 C70.55413248 956.89198344 59.57987965 956.89344659 48.60554256 956.88071196 C42.67406316 956.87422091 36.7427692 956.87392386 30.81130791 956.89141846 C-39.84275696 957.08654849 -101.03118821 939.61954161 -152.30523682 888.82518005 C-157.76314788 883.31529662 -162.77639656 877.55014555 -167.49273682 871.38768005 C-167.92296143 870.82854919 -168.35318604 870.26941833 -168.79644775 869.69334412 C-175.7271379 860.63770141 -181.86140706 851.29839959 -187.49273682 841.38768005 C-187.82869873 840.81146912 -188.16466064 840.23525818 -188.51080322 839.6415863 C-205.22103239 810.89771087 -215.68586982 775.22226971 -215.62695789 741.87543678 C-215.62931012 740.95635438 -215.63166235 740.03727197 -215.63408586 739.09033859 C-215.64073044 736.01777897 -215.64031902 732.94526209 -215.63990784 729.87269592 C-215.64320932 727.64440388 -215.64693548 725.41611244 -215.65104932 723.18782175 C-215.66104555 717.069227 -215.6647823 710.95064206 -215.66743863 704.83204031 C-215.67094714 698.9086308 -215.67909529 692.98522806 -215.68698256 687.06182316 C-215.70779621 671.19401911 -215.71829328 655.32621324 -215.72711217 639.45839872 C-215.73132449 631.9430591 -215.73654579 624.42772026 -215.7417967 616.9123813 C-215.75968734 591.15898961 -215.77467944 565.40559767 -215.78211689 539.6522007 C-215.78259164 538.03623641 -215.78306753 536.42027213 -215.78354455 534.80430784 C-215.78378093 534.0029747 -215.7840173 533.20164156 -215.78426084 532.3760256 C-215.78546197 528.31643385 -215.78667745 524.25684211 -215.78790283 520.19725037 C-215.78814298 519.39162726 -215.78838313 518.58600414 -215.78863056 517.75596821 C-215.79651373 491.66833535 -215.81992502 465.5807481 -215.85245878 439.49313514 C-215.88683456 411.87773214 -215.90647534 384.26235579 -215.90976113 356.64693105 C-215.91017863 353.60920357 -215.91065818 350.5714761 -215.91118431 347.53374863 C-215.9113075 346.78583684 -215.91143069 346.03792505 -215.91155762 345.26734927 C-215.91388037 333.28109425 -215.92948869 321.29489257 -215.95002616 309.3086565 C-215.97038411 297.23455514 -215.97571476 285.16051717 -215.96625552 273.08640184 C-215.96153027 266.55753274 -215.96348307 260.02880092 -215.98301697 253.49995232 C-216.18677554 181.33586399 -199.96805026 119.10442334 -147.93023682 66.57518005 C-142.42035339 61.11726899 -136.65520231 56.10402031 -130.49273682 51.38768005 C-129.93360596 50.95745544 -129.3744751 50.52723083 -128.79840088 50.08396912 C-119.7490969 43.15813028 -110.42024152 36.97947797 -100.49273682 31.38768005 C-99.86866943 31.03576599 -99.24460205 30.68385193 -98.60162354 30.3212738 C-90.93637798 26.0371149 -83.19854768 22.30545604 -75.07476807 18.95018005 C-71.87828411 17.55585772 -68.81933247 16.03978764 -65.73272705 14.42552185 C-59.46420685 11.15629361 -53.19173343 8.34987191 -46.49273682 6.07518005 C-45.83048096 5.8450824 -45.1682251 5.61498474 -44.48590088 5.37791443 C-29.74379704 0.60161285 -15.34325704 -0.04914413 0 0 Z " fill="#F2F2F2" transform="translate(215.49273681640625,-0.3876800537109375)"/>
<path d="M0 0 C2.14032925 -0.00418003 4.28065629 -0.0096612 6.42097926 -0.01631981 C12.26367891 -0.03070533 18.10623667 -0.02655131 23.94894385 -0.019153 C30.26540922 -0.01440647 36.58184455 -0.02694433 42.89830017 -0.03717041 C54.54482049 -0.05334449 66.19128443 -0.0558098 77.83781252 -0.05086542 C88.60154414 -0.0462984 99.36525909 -0.04691966 110.12899017 -0.05270576 C111.57592976 -0.05346265 113.02286934 -0.05421863 114.46980892 -0.05497371 C116.6505482 -0.05611897 118.83128747 -0.05726886 121.01202674 -0.05843295 C141.27225683 -0.06912948 161.53248138 -0.07387199 181.79271317 -0.06596279 C182.93697894 -0.06551703 182.93697894 -0.06551703 184.1043612 -0.06506227 C190.29814873 -0.06261363 196.4919362 -0.06000189 202.68572366 -0.05737813 C226.83606143 -0.04727907 250.98632964 -0.05562808 275.13665771 -0.07887268 C302.30715307 -0.10498224 329.47760656 -0.11778327 356.64811492 -0.11068493 C359.54883432 -0.10996894 362.44955372 -0.10929454 365.35027313 -0.10864449 C366.06443577 -0.10847468 366.7785984 -0.10830487 367.51440232 -0.10812991 C378.26462491 -0.10583314 389.01480845 -0.11377416 399.76502228 -0.12693596 C412.00057633 -0.14189014 424.23601105 -0.14226108 436.47156844 -0.12486505 C442.70798886 -0.11637289 448.94423568 -0.11416193 455.1806469 -0.1295166 C460.90144231 -0.14342679 466.62191641 -0.13851943 472.34269354 -0.11927737 C474.40043008 -0.1155364 476.45819276 -0.11838365 478.51590589 -0.12888902 C495.18209474 -0.20785336 511.68568795 1.44514226 527.31976318 7.63768005 C528.09489258 7.93360046 528.87002197 8.22952087 529.66864014 8.53440857 C536.64409722 11.27832233 543.13970946 14.72446238 549.66693115 18.38475037 C552.1671667 19.74730909 554.71837288 20.99167144 557.27850342 22.23704529 C601.10880776 43.57085783 637.34791638 75.86903514 661.50726318 118.38768005 C661.8432251 118.96389099 662.17918701 119.54010193 662.52532959 120.1337738 C679.23555876 148.87764924 689.70039619 184.5530904 689.64148426 217.89992332 C689.64383649 218.81900573 689.64618872 219.73808813 689.64861223 220.68502152 C689.65525681 223.75758113 689.65484538 226.83009802 689.6544342 229.90266418 C689.65773568 232.13095623 689.66146185 234.35924767 689.66557568 236.58753836 C689.67557192 242.70613311 689.67930866 248.82471805 689.68196499 254.9433198 C689.6854735 260.8667293 689.69362166 266.79013205 689.70150893 272.71353695 C689.72232258 288.581341 689.73281965 304.44914687 689.74163854 320.31696138 C689.74585085 327.83230101 689.75107216 335.34763985 689.75632307 342.86297881 C689.77421371 368.6163705 689.78920581 394.36976243 689.79664326 420.12315941 C689.79711801 421.73912369 689.79759389 423.35508798 689.79807092 424.97105227 C689.79842548 426.17305197 689.79842548 426.17305197 689.79878721 427.3993345 C689.79998834 431.45892625 689.80120381 435.518518 689.8024292 439.57810974 C689.80266935 440.38373285 689.8029095 441.18935596 689.80315693 442.0193919 C689.8110401 468.10702475 689.83445138 494.194612 689.86698514 520.28222497 C689.90136093 547.89762797 689.92100171 575.51300432 689.9242875 603.12842906 C689.92470499 606.16615654 689.92518455 609.20388401 689.92571068 612.24161148 C689.92583387 612.98952327 689.92595706 613.73743505 689.92608399 614.50801083 C689.92840674 626.49426585 689.94401506 638.48046753 689.96455252 650.46670361 C689.98491047 662.54080497 689.99024113 674.61484293 689.98078189 686.68895827 C689.97605663 693.21782737 689.97800944 699.74655919 689.99754333 706.27540779 C690.2013019 778.43949612 673.98257663 840.67093676 621.94476318 893.20018005 C616.43487975 898.65809111 610.66972868 903.67133979 604.50726318 908.38768005 C603.94813232 908.81790466 603.38900146 909.24812927 602.81292725 909.69139099 C593.75938335 916.62047483 584.42371823 922.76966205 574.50726318 928.38768005 C573.61901855 928.899599 573.61901855 928.899599 572.71282959 929.42185974 C553.18513579 940.618809 531.70850532 947.89561561 509.75726318 952.63768005 C509.06237793 952.78882263 508.36749268 952.93996521 507.65155029 953.09568787 C493.08042095 956.05704137 478.78484928 956.68118068 463.97276306 956.65510559 C461.936419 956.65884942 459.90007637 956.66345384 457.86373597 956.66883624 C452.30821641 956.68099148 446.7527574 956.68081464 441.1972276 956.67844748 C435.18942866 956.67803741 429.18164864 956.68909674 423.17385864 956.69856262 C411.41733275 956.71513338 399.66082189 956.72069644 387.90428676 956.72178738 C378.33967966 956.72270909 368.77507902 956.72683936 359.21047401 956.73318863 C356.44986052 956.73498394 353.68924702 956.73676357 350.92863351 956.73853838 C350.24218195 956.73898048 349.5557304 956.73942258 348.84847728 956.73987807 C329.55636303 956.75217548 310.26425102 956.76008034 290.97213268 956.75919151 C290.24575401 956.75916036 289.51937533 956.7591292 288.77098518 956.7590971 C285.0900415 956.7589309 281.40909782 956.75873282 277.72815415 956.75852768 C276.99720878 956.75848779 276.26626341 956.7584479 275.51316818 956.7584068 C274.03501877 956.75832593 272.55686936 956.75824233 271.07871995 956.75815602 C248.10313415 956.75693168 225.12760747 956.77192659 202.15203857 956.79930115 C176.29076593 956.8301018 150.42953212 956.84722878 124.56823999 956.8453747 C121.80416858 956.84522546 119.04009718 956.84512804 116.27602577 956.84506607 C115.25528318 956.84503111 115.25528318 956.84503111 114.21391953 956.84499544 C103.31874519 956.84493419 92.42362267 956.85764165 81.52846369 956.8749306 C70.55413248 956.89198344 59.57987965 956.89344659 48.60554256 956.88071196 C42.67406316 956.87422091 36.7427692 956.87392386 30.81130791 956.89141846 C-39.84275696 957.08654849 -101.03118821 939.61954161 -152.30523682 888.82518005 C-157.76314788 883.31529662 -162.77639656 877.55014555 -167.49273682 871.38768005 C-167.92296143 870.82854919 -168.35318604 870.26941833 -168.79644775 869.69334412 C-175.7271379 860.63770141 -181.86140706 851.29839959 -187.49273682 841.38768005 C-187.82869873 840.81146912 -188.16466064 840.23525818 -188.51080322 839.6415863 C-205.22103239 810.89771087 -215.68586982 775.22226971 -215.62695789 741.87543678 C-215.62931012 740.95635438 -215.63166235 740.03727197 -215.63408586 739.09033859 C-215.64073044 736.01777897 -215.64031902 732.94526209 -215.63990784 729.87269592 C-215.64320932 727.64440388 -215.64693548 725.41611244 -215.65104932 723.18782175 C-215.66104555 717.069227 -215.6647823 710.95064206 -215.66743863 704.83204031 C-215.67094714 698.9086308 -215.67909529 692.98522806 -215.68698256 687.06182316 C-215.70779621 671.19401911 -215.71829328 655.32621324 -215.72711217 639.45839872 C-215.73132449 631.9430591 -215.73654579 624.42772026 -215.7417967 616.9123813 C-215.75968734 591.15898961 -215.77467944 565.40559767 -215.78211689 539.6522007 C-215.78259164 538.03623641 -215.78306753 536.42027213 -215.78354455 534.80430784 C-215.78378093 534.0029747 -215.7840173 533.20164156 -215.78426084 532.3760256 C-215.78546197 528.31643385 -215.78667745 524.25684211 -215.78790283 520.19725037 C-215.78814298 519.39162726 -215.78838313 518.58600414 -215.78863056 517.75596821 C-215.79651373 491.66833535 -215.81992502 465.5807481 -215.85245878 439.49313514 C-215.88683456 411.87773214 -215.90647534 384.26235579 -215.90976113 356.64693105 C-215.91017863 353.60920357 -215.91065818 350.5714761 -215.91118431 347.53374863 C-215.9113075 346.78583684 -215.91143069 346.03792505 -215.91155762 345.26734927 C-215.91388037 333.28109425 -215.92948869 321.29489257 -215.95002616 309.3086565 C-215.97038411 297.23455514 -215.97571476 285.16051717 -215.96625552 273.08640184 C-215.96153027 266.55753274 -215.96348307 260.02880092 -215.98301697 253.49995232 C-216.18677554 181.33586399 -199.96805026 119.10442334 -147.93023682 66.57518005 C-142.42035339 61.11726899 -136.65520231 56.10402031 -130.49273682 51.38768005 C-129.93360596 50.95745544 -129.3744751 50.52723083 -128.79840088 50.08396912 C-119.7490969 43.15813028 -110.42024152 36.97947797 -100.49273682 31.38768005 C-99.86866943 31.03576599 -99.24460205 30.68385193 -98.60162354 30.3212738 C-90.93637798 26.0371149 -83.19854768 22.30545604 -75.07476807 18.95018005 C-71.87828411 17.55585772 -68.81933247 16.03978764 -65.73272705 14.42552185 C-59.46420685 11.15629361 -53.19173343 8.34987191 -46.49273682 6.07518005 C-45.83048096 5.8450824 -45.1682251 5.61498474 -44.48590088 5.37791443 C-29.74379704 0.60161285 -15.34325704 -0.04914413 0 0 Z M-90.84039307 64.97996521 C-105.40426191 82.95112725 -114.67174851 106.48879632 -114.62416458 129.67082787 C-114.62621722 130.60156291 -114.62826985 131.53229796 -114.63038468 132.4912371 C-114.63605553 135.62139402 -114.63459732 138.75150694 -114.63317871 141.88166809 C-114.63576231 144.14408405 -114.63877545 146.40649956 -114.64218211 148.66891444 C-114.65025621 154.89533639 -114.65204192 161.12174681 -114.65277958 167.34817338 C-114.65443954 173.37102502 -114.66075719 179.39387073 -114.66685799 185.41671907 C-114.68291362 201.55361018 -114.6888211 217.69050034 -114.69360674 233.827398 C-114.69594346 241.46396879 -114.69954623 249.10053883 -114.70330212 256.73710903 C-114.7161382 282.88632485 -114.72685658 309.03554024 -114.73030472 335.18475914 C-114.73052635 336.82612325 -114.73074813 338.46748736 -114.73097007 340.10885147 C-114.73119071 341.7541499 -114.73141119 343.39944833 -114.73163152 345.04474676 C-114.73207407 348.34541853 -114.73252118 351.64609031 -114.73297119 354.94676208 C-114.73308058 355.7651361 -114.73318997 356.58351012 -114.73330268 357.42668335 C-114.73693172 383.95075638 -114.7528457 410.47480205 -114.77616156 436.9988646 C-114.80077633 465.05196484 -114.81447835 493.10504945 -114.81567264 521.15816081 C-114.81584408 524.23983105 -114.81605951 527.3215013 -114.81630707 530.40317154 C-114.81636284 531.16194653 -114.81641861 531.92072153 -114.81647606 532.7024897 C-114.81762518 544.8965636 -114.82863546 557.09060937 -114.84319412 569.28467377 C-114.85758478 581.55049991 -114.86078166 593.81629011 -114.85275415 606.08212237 C-114.84869975 612.72299684 -114.84976166 619.36379701 -114.86381149 626.00466537 C-114.87656955 632.09074247 -114.87533599 638.17665446 -114.86322078 644.26273139 C-114.86126708 646.45797855 -114.86432697 648.65323747 -114.87306514 650.84846811 C-114.99805308 684.38677573 -105.39492082 713.30956121 -81.74273682 737.57518005 C-67.4325743 751.66045547 -49.09846859 761.83971583 -29.49273682 766.38768005 C-28.83310037 766.55332637 -28.17346392 766.7189727 -27.49383849 766.8896386 C-17.71405225 769.03062124 -7.83284479 768.66861917 2.12193298 768.64837646 C4.22779787 768.65139934 6.33366166 768.65528951 8.43952352 768.65996903 C14.21000406 768.67024033 19.9804224 768.66806939 25.75090802 768.66378844 C31.98080623 768.66131962 38.21068954 768.67033738 44.44058228 768.67782593 C56.63995114 768.69057106 68.83929106 768.6923726 81.03866412 768.69002566 C90.95674584 768.68819099 100.87482109 768.68995627 110.79290199 768.69425011 C112.21926526 768.69485252 113.64562853 768.69545371 115.0719918 768.69605371 C117.22156408 768.69696099 119.37113636 768.69786966 121.52070863 768.69878606 C141.50050389 768.70721277 161.48029671 768.7115533 181.4600935 768.70737934 C182.58931138 768.70714478 182.58931138 768.70714478 183.74134175 768.70690547 C187.55663194 768.70609973 191.37192213 768.70525396 195.18721231 768.70439217 C196.32374322 768.70413554 196.32374322 768.70413554 197.48323435 768.70387372 C199.01546181 768.70352707 200.54768926 768.70317854 202.07991671 768.70282814 C225.9138678 768.69747263 249.74778188 768.70539768 273.58172607 768.72386169 C300.37894916 768.74459719 327.17614931 768.75530136 353.97338086 768.75128621 C356.83310242 768.75089088 359.69282398 768.75052933 362.55254555 768.75018883 C363.25664517 768.7500981 363.96074479 768.75000736 364.68618077 768.74991388 C375.29635804 768.7487499 385.9065121 768.75538109 396.51668358 768.76600075 C408.59069214 768.77807346 420.66463574 768.77931077 432.73864963 768.76721058 C438.89552878 768.76132711 445.05230835 768.76020784 451.20918083 768.77221298 C456.85281592 768.78308919 462.49626851 768.7799476 468.13989512 768.7659513 C470.17415777 768.76330915 472.2084348 768.76565561 474.24268331 768.77368716 C507.21203248 768.89475028 535.76016555 758.83788619 559.63226318 735.76268005 C578.82783404 716.38765249 590.68855882 689.27337067 590.64148426 661.97145367 C590.64383649 661.03847559 590.64618872 660.10549752 590.64861223 659.14424738 C590.65527849 656.01246381 590.65484472 652.88072195 590.6544342 649.74893188 C590.65773431 647.48295333 590.66146019 645.21697535 590.66557568 642.95099813 C590.67558717 636.71929658 590.67931111 630.48760466 590.68196499 624.25589621 C590.68546953 618.22644804 590.69361711 612.19700713 590.70150893 606.16756354 C590.72233578 590.01454152 590.73282077 573.86151769 590.74163854 557.70848537 C590.74584797 550.06304578 590.7510696 542.41760697 590.75632307 534.77216804 C590.77421266 508.588428 590.78920715 482.40468773 590.79664326 456.2209425 C590.79711801 454.57762953 590.7975939 452.93431657 590.79807092 451.2910036 C590.79830729 450.47608768 590.79854367 449.66117176 590.79878721 448.82156142 C590.79998838 444.6929662 590.80120384 440.56437097 590.8024292 436.43577576 C590.80278942 435.20678907 590.80278942 435.20678907 590.80315693 433.95297437 C590.81104617 407.40105334 590.83447056 380.84917703 590.86698514 354.29727552 C590.90131763 326.20942837 590.9209976 298.12160738 590.9242875 270.03373891 C590.92470502 266.94755478 590.92518458 263.86137066 590.92571068 260.77518654 C590.92583387 260.01530974 590.92595706 259.25543294 590.92608399 258.47252957 C590.92841184 246.26680678 590.94404865 234.0611361 590.96455252 221.85543185 C590.98485364 209.57512419 590.99026762 197.29487883 590.98078189 185.0145575 C590.9760392 178.36733055 590.97810586 171.72023645 590.99754333 165.07302284 C591.01520931 158.97882164 591.0141491 152.88491147 590.99864604 146.79070703 C590.99627522 144.59477926 591.00056597 142.39883116 591.01247469 140.20293441 C591.17871779 107.50360252 580.73985328 78.87646111 557.88226318 55.26268005 C538.31072846 35.87563241 511.13950196 24.20196444 483.59268379 24.25345898 C482.72608682 24.25110675 481.85948985 24.24875452 480.96663237 24.24633101 C478.06668055 24.23968118 475.16677396 24.24009801 472.26681519 24.24050903 C470.16496554 24.23720791 468.06311652 24.23348182 465.96126831 24.22936755 C460.18788898 24.21936779 454.41452006 24.21563402 448.64113331 24.21297824 C442.41319145 24.20906921 436.18525778 24.19949133 429.95732117 24.19076538 C415.62924105 24.17195168 401.30116282 24.16174769 386.97307363 24.1533047 C379.88748033 24.14909374 372.80188787 24.14387234 365.71629528 24.13862017 C341.4456826 24.1207322 317.17506966 24.10573785 292.90445137 24.09829998 C291.38158242 24.09782523 289.85871346 24.09734934 288.33584451 24.09687232 C287.58066488 24.09663594 286.82548525 24.09639957 286.04742138 24.09615603 C282.22153531 24.09495487 278.39564925 24.09373941 274.56976318 24.09251404 C273.81051532 24.09227389 273.05126746 24.09203374 272.26901208 24.09178631 C247.66384478 24.08389702 223.05872574 24.06047169 198.45357951 24.02795809 C172.41949577 23.99361931 146.38544025 23.9739451 120.3513335 23.97065574 C117.49040595 23.97023822 114.62947841 23.96975867 111.76855087 23.96923256 C111.06414659 23.96910937 110.35974232 23.96898618 109.63399245 23.96885925 C98.32375204 23.96653228 87.01356791 23.95090051 75.70334752 23.93039071 C64.32268311 23.91008147 52.94210518 23.90501147 41.56141908 23.91416135 C35.40225416 23.91869878 29.2432711 23.91685191 23.08413124 23.8973999 C17.43591436 23.87971617 11.78801133 23.88080831 6.13979088 23.89629719 C4.10607199 23.89866534 2.07233107 23.89439137 0.03864576 23.88246854 C-35.719008 23.68596743 -67.63137571 37.55800666 -90.84039307 64.97996521 Z " fill="#000000" transform="translate(215.49273681640625,-0.3876800537109375)"/>
<path d="M0 0 C4.15247134 3.90422956 8.19553191 7.90984137 12.18432617 11.98022461 C13.5169646 13.31425249 14.85021862 14.64766594 16.18432617 15.98022461 C16.17433342 14.91906685 16.17433342 14.91906685 16.16413879 13.83647156 C16.1040392 7.17103565 16.05835779 0.50567531 16.02888966 -6.15997028 C16.01323044 -9.58690762 15.99198814 -13.01362116 15.95800781 -16.44042969 C15.91919103 -20.37961147 15.90461902 -24.31870248 15.89135742 -28.25805664 C15.87587357 -29.4893782 15.86038971 -30.72069977 15.84443665 -31.98933411 C15.84421005 -33.13029037 15.84398346 -34.27124664 15.84375 -35.44677734 C15.83375725 -36.95568291 15.83375725 -36.95568291 15.82356262 -38.49507141 C16.25235015 -41.49582241 16.85022945 -42.16795951 19.18432617 -44.01977539 C22.22617228 -44.31620436 25.0632255 -44.4293599 28.10620117 -44.40795898 C29.01865601 -44.41321594 29.93111084 -44.4184729 30.87121582 -44.42388916 C33.89242587 -44.43711116 36.9131106 -44.42834323 39.93432617 -44.41821289 C42.03035585 -44.42023299 44.12638484 -44.42314389 46.22241211 -44.4269104 C50.61733689 -44.43133674 55.01207887 -44.42489266 59.40698242 -44.41088867 C65.04651438 -44.39379671 70.68561804 -44.40363623 76.32513428 -44.42160606 C80.65392293 -44.43243548 84.98260968 -44.42900141 89.31140137 -44.42122269 C91.3910731 -44.41921835 93.47075403 -44.4216881 95.55041504 -44.42866135 C98.45467715 -44.43626189 101.35824118 -44.42469111 104.26245117 -44.40795898 C105.55765686 -44.41706802 105.55765686 -44.41706802 106.87902832 -44.42636108 C112.60230167 -44.36513089 112.60230167 -44.36513089 114.90505469 -42.99874783 C116.92816446 -39.86909276 116.59430893 -36.58283227 116.56184959 -32.9752655 C116.56620992 -32.14202291 116.57057024 -31.30878031 116.57506269 -30.45028794 C116.58608737 -27.63368901 116.57556353 -24.81757263 116.5652771 -22.00097656 C116.56873081 -19.97112113 116.57349344 -17.94126757 116.57945883 -15.91141796 C116.59203782 -10.31436295 116.58576721 -4.71746044 116.57650018 0.87959528 C116.56973815 6.90829687 116.58017673 12.93697143 116.58843994 18.96566772 C116.60103639 30.09966938 116.59990613 41.23362192 116.59170554 52.36762258 C116.58416744 62.65228301 116.58218476 72.93692551 116.58577347 83.22158813 C116.5861172 84.24374967 116.5861172 84.24374967 116.58646788 85.28656093 C116.58740185 88.05255135 116.58835704 90.81854176 116.58934717 93.58453216 C116.59853013 119.54694687 116.59019434 145.50933042 116.57405648 171.47174032 C116.559819 194.55238459 116.56109285 217.63297921 116.57543945 240.71362305 C116.5914933 266.62767518 116.59787896 292.54169977 116.58860266 318.45575619 C116.58764047 321.21679115 116.58670195 323.97782611 116.58577347 326.73886108 C116.58541762 327.75866348 116.58541762 327.75866348 116.58505458 328.79906795 C116.58163801 339.07883157 116.58564071 349.35857531 116.59321213 359.63833618 C116.60177561 371.32350694 116.59938614 383.00863027 116.5833699 394.69379735 C116.57546215 400.66065887 116.57243803 406.62741938 116.58231735 412.59428024 C116.59121313 418.04943526 116.58641644 423.50439501 116.5703847 428.95953214 C116.56701507 430.9399653 116.5687794 432.92041473 116.57601206 434.90083754 C116.58504888 437.57936918 116.57586604 440.25721953 116.56184959 442.93571472 C116.56887309 443.7163141 116.57589659 444.49691347 116.58313292 445.30116737 C116.52880194 450.44605729 116.52880194 450.44605729 114.907848 452.95961761 C111.67219189 454.87565558 107.81297428 454.38451812 104.15478516 454.35253906 C103.23097046 454.35618973 102.30715576 454.35984039 101.35534668 454.36360168 C98.29685171 454.3717184 95.23888462 454.35808867 92.18041992 454.34350586 C90.0595754 454.34298743 87.9387304 454.34350446 85.81788635 454.34501648 C81.37168206 454.34492671 76.92565891 454.33448642 72.47949219 454.31640625 C66.77043024 454.29370519 61.06163278 454.29317697 55.35253811 454.2999239 C50.97318659 454.30325949 46.59389576 454.29664175 42.21455574 454.28679466 C40.10894144 454.28293633 38.00332041 454.28179705 35.89770317 454.28338051 C32.9598279 454.2837499 30.02229646 454.27116698 27.08447266 454.25488281 C26.20805618 454.25736023 25.33163971 454.25983765 24.42866516 454.26239014 C18.41306782 454.20896626 18.41306782 454.20896626 16.18432617 451.98022461 C15.94381714 449.57577515 15.94381714 449.57577515 15.95727539 446.52075195 C15.95742645 445.37972015 15.95757751 444.23868835 15.95773315 443.06307983 C15.96805573 441.82659698 15.9783783 440.59011414 15.98901367 439.31616211 C15.99325851 437.42264511 15.99325851 437.42264511 15.99758911 435.49087524 C16.00690486 432.13375517 16.02487782 428.77690549 16.04699707 425.41986084 C16.06745067 421.99469339 16.07658977 418.56949802 16.08666992 415.14428711 C16.10876159 408.4228579 16.1422624 401.70155687 16.18432617 394.98022461 C13.35722259 397.79646863 10.54914238 400.62513751 7.79370117 403.51147461 C-28.6318094 441.18599552 -78.71675785 463.01719499 -131.19999695 464.24526978 C-135.44729624 464.30601922 -139.69304172 464.31125202 -143.94067383 464.29272461 C-144.83608887 464.29056946 -145.73150391 464.28841431 -146.65405273 464.28619385 C-211.7608363 464.03562716 -270.55674849 438.22578675 -316.43286133 392.36352539 C-337.57026854 370.84387446 -356.37184951 343.36896255 -366.81567383 314.98022461 C-365.68516602 315.26897461 -364.5546582 315.55772461 -363.38989258 315.85522461 C-332.45239878 323.19765346 -300.14184202 319.6206099 -272.82836914 302.89868164 C-269.79182481 300.97257758 -266.80338992 298.9811363 -263.81567383 296.98022461 C-263.15567383 296.65022461 -262.49567383 296.32022461 -261.81567383 295.98022461 C-261.29360352 296.8400293 -260.7715332 297.69983398 -260.23364258 298.58569336 C-254.78926467 307.39292305 -248.79283224 315.33378853 -241.81567383 322.98022461 C-240.95200195 323.92768555 -240.08833008 324.87514648 -239.19848633 325.85131836 C-228.39069443 337.15620455 -215.62176178 345.74626548 -201.81567383 352.98022461 C-200.66969727 353.58608398 -199.5237207 354.19194336 -198.34301758 354.81616211 C-191.29275769 358.39700044 -184.09028159 361.01426758 -176.50317383 363.23022461 C-175.71096436 363.46435059 -174.91875488 363.69847656 -174.10253906 363.93969727 C-159.32562276 368.02689826 -144.66148437 369.51345294 -129.37817383 369.35522461 C-128.57106964 369.3505719 -127.76396545 369.34591919 -126.93240356 369.34112549 C-115.01993771 369.26076414 -103.42110359 368.90226315 -91.81567383 365.98022461 C-90.64657471 365.69816162 -90.64657471 365.69816162 -89.45385742 365.41040039 C-65.39716639 359.43308064 -44.67892392 348.11312036 -26.81567383 330.98022461 C-26.06930664 330.28541992 -25.32293945 329.59061523 -24.55395508 328.87475586 C6.60632971 299.01961389 20.4562829 254.99647025 21.38745117 212.77319336 C21.89621595 163.14756366 10.44965754 116.75409916 -25.00317383 80.41772461 C-52.60249101 52.88719329 -91.53112198 40.88158628 -129.81567383 40.60522461 C-171.09377448 40.84322667 -209.24158496 54.80987757 -238.81567383 83.98022461 C-245.51136979 90.76040885 -251.18510116 98.00173823 -256.58911133 105.81616211 C-258.56990956 108.63098065 -260.633672 111.3199758 -262.81567383 113.98022461 C-264.10924805 113.03663086 -264.10924805 113.03663086 -265.42895508 112.07397461 C-290.05188832 94.60958838 -319.91525165 87.55446596 -349.93286133 91.37719727 C-355.30012667 92.30355963 -360.56272562 93.54702071 -365.81567383 94.98022461 C-360.68091188 78.59810411 -350.89399102 62.82172298 -340.81567383 48.98022461 C-340.34806641 48.32763672 -339.88045898 47.67504883 -339.39868164 47.00268555 C-333.46376143 38.74387436 -327.24593495 30.97078232 -320.26098633 23.57788086 C-318.21929571 21.40899226 -316.28796946 19.20117591 -314.37817383 16.91772461 C-279.44218762 -23.03260315 -223.88982323 -47.80022195 -171.81567383 -53.01977539 C-170.8127832 -53.13063477 -169.80989258 -53.24149414 -168.77661133 -53.35571289 C-107.20950488 -59.00827601 -45.78264127 -42.48111574 0 0 Z " fill="#000000" transform="translate(588.815673828125,191.019775390625)"/>
<path d="M0 0 C0.70382812 0.54140625 1.40765625 1.0828125 2.1328125 1.640625 C18.12922811 14.56321957 27.63993955 35.91763373 30 56 C31.37845567 78.01009545 25.62646668 100.06152944 11 117 C-3.79213053 133.70688681 -23.386293 145.32902158 -46.02392578 147.1640625 C-70.16226261 148.50788083 -92.0391341 140.35836695 -110.25 124.58984375 C-122.38073452 113.16558666 -129.56453602 98.83837747 -134 83 C-134.24621094 82.15179688 -134.49242187 81.30359375 -134.74609375 80.4296875 C-139.58861021 60.72565501 -134.39854278 39.30515398 -124.8125 21.9375 C-111.74058625 0.5188015 -92.92351488 -11.41064148 -69.20703125 -17.74609375 C-44.85437466 -23.0882045 -19.04112516 -15.60747964 0 0 Z " fill="#010101" transform="translate(309,332)"/>
<path d="M0 0 C0.66 0.33 1.32 0.66 2 1 C-6.91 9.91 -15.82 18.82 -25 28 C-25.66 27.67 -26.32 27.34 -27 27 C-26.25556641 26.27296875 -26.25556641 26.27296875 -25.49609375 25.53125 C-22.10602058 22.18620627 -18.81101807 18.83804748 -15.75 15.1875 C-10.99158854 9.63047403 -5.44633136 4.86503163 0 0 Z " fill="#242424" transform="translate(290,193)"/>
<path d="M0 0 C0.66 0.33 1.32 0.66 2 1 C-2.95 5.95 -7.9 10.9 -13 16 C-13.66 15.67 -14.32 15.34 -15 15 C-10.3143947 9.52331848 -5.59753384 4.54799625 0 0 Z " fill="#232323" transform="translate(205,330)"/>
</svg>
