<?xml version="1.0" encoding="UTF-8"?>
<svg version="1.1" xmlns="http://www.w3.org/2000/svg" width="905" height="956">
<path d="M0 0 C2.14032925 -0.00418003 4.28065629 -0.0096612 6.42097926 -0.01631981 C12.26367891 -0.03070533 18.10623667 -0.02655131 23.94894385 -0.019153 C30.26540922 -0.01440647 36.58184455 -0.02694433 42.89830017 -0.03717041 C54.54482049 -0.05334449 66.19128443 -0.0558098 77.83781252 -0.05086542 C88.60154414 -0.0462984 99.36525909 -0.04691966 110.12899017 -0.05270576 C111.57592976 -0.05346265 113.02286934 -0.05421863 114.46980892 -0.05497371 C116.6505482 -0.05611897 118.83128747 -0.05726886 121.01202674 -0.05843295 C141.27225683 -0.06912948 161.53248138 -0.07387199 181.79271317 -0.06596279 C182.93697894 -0.06551703 182.93697894 -0.06551703 184.1043612 -0.06506227 C190.29814873 -0.06261363 196.4919362 -0.06000189 202.68572366 -0.05737813 C226.83606143 -0.04727907 250.98632964 -0.05562808 275.13665771 -0.07887268 C302.30715307 -0.10498224 329.47760656 -0.11778327 356.64811492 -0.11068493 C359.54883432 -0.10996894 362.44955372 -0.10929454 365.35027313 -0.10864449 C366.06443577 -0.10847468 366.7785984 -0.10830487 367.51440232 -0.10812991 C378.26462491 -0.10583314 389.01480845 -0.11377416 399.76502228 -0.12693596 C412.00057633 -0.14189014 424.23601105 -0.14226108 436.47156844 -0.12486505 C442.70798886 -0.11637289 448.94423568 -0.11416193 455.1806469 -0.1295166 C460.90144231 -0.14342679 466.62191641 -0.13851943 472.34269354 -0.11927737 C474.40043008 -0.1155364 476.45819276 -0.11838365 478.51590589 -0.12888902 C495.18209474 -0.20785336 511.68568795 1.44514226 527.31976318 7.63768005 C528.09489258 7.93360046 528.87002197 8.22952087 529.66864014 8.53440857 C536.64409722 11.27832233 543.13970946 14.72446238 549.66693115 18.38475037 C552.1671667 19.74730909 554.71837288 20.99167144 557.27850342 22.23704529 C601.10880776 43.57085783 637.34791638 75.86903514 661.50726318 118.38768005 C661.8432251 118.96389099 662.17918701 119.54010193 662.52532959 120.1337738 C679.23555876 148.87764924 689.70039619 184.5530904 689.64148426 217.89992332 C689.64383649 218.81900573 689.64618872 219.73808813 689.64861223 220.68502152 C689.65525681 223.75758113 689.65484538 226.83009802 689.6544342 229.90266418 C689.65773568 232.13095623 689.66146185 234.35924767 689.66557568 236.58753836 C689.67557192 242.70613311 689.67930866 248.82471805 689.68196499 254.9433198 C689.6854735 260.8667293 689.69362166 266.79013205 689.70150893 272.71353695 C689.72232258 288.581341 689.73281965 304.44914687 689.74163854 320.31696138 C689.74585085 327.83230101 689.75107216 335.34763985 689.75632307 342.86297881 C689.77421371 368.6163705 689.78920581 394.36976243 689.79664326 420.12315941 C689.79711801 421.73912369 689.79759389 423.35508798 689.79807092 424.97105227 C689.79842548 426.17305197 689.79842548 426.17305197 689.79878721 427.3993345 C689.79998834 431.45892625 689.80120381 435.518518 689.8024292 439.57810974 C689.80266935 440.38373285 689.8029095 441.18935596 689.80315693 442.0193919 C689.8110401 468.10702475 689.83445138 494.194612 689.86698514 520.28222497 C689.90136093 547.89762797 689.92100171 575.51300432 689.9242875 603.12842906 C689.92470499 606.16615654 689.92518455 609.20388401 689.92571068 612.24161148 C689.92583387 612.98952327 689.92595706 613.73743505 689.92608399 614.50801083 C689.92840674 626.49426585 689.94401506 638.48046753 689.96455252 650.46670361 C689.98491047 662.54080497 689.99024113 674.61484293 689.98078189 686.68895827 C689.97605663 693.21782737 689.97800944 699.74655919 689.99754333 706.27540779 C690.2013019 778.43949612 673.98257663 840.67093676 621.94476318 893.20018005 C616.43487975 898.65809111 610.66972868 903.67133979 604.50726318 908.38768005 C603.94813232 908.81790466 603.38900146 909.24812927 602.81292725 909.69139099 C593.75938335 916.62047483 584.42371823 922.76966205 574.50726318 928.38768005 C573.61901855 928.899599 573.61901855 928.899599 572.71282959 929.42185974 C553.18513579 940.618809 531.70850532 947.89561561 509.75726318 952.63768005 C509.06237793 952.78882263 508.36749268 952.93996521 507.65155029 953.09568787 C493.08042095 956.05704137 478.78484928 956.68118068 463.97276306 956.65510559 C461.936419 956.65884942 459.90007637 956.66345384 457.86373597 956.66883624 C452.30821641 956.68099148 446.7527574 956.68081464 441.1972276 956.67844748 C435.18942866 956.67803741 429.18164864 956.68909674 423.17385864 956.69856262 C411.41733275 956.71513338 399.66082189 956.72069644 387.90428676 956.72178738 C378.33967966 956.72270909 368.77507902 956.72683936 359.21047401 956.73318863 C356.44986052 956.73498394 353.68924702 956.73676357 350.92863351 956.73853838 C350.24218195 956.73898048 349.5557304 956.73942258 348.84847728 956.73987807 C329.55636303 956.75217548 310.26425102 956.76008034 290.97213268 956.75919151 C290.24575401 956.75916036 289.51937533 956.7591292 288.77098518 956.7590971 C285.0900415 956.7589309 281.40909782 956.75873282 277.72815415 956.75852768 C276.99720878 956.75848779 276.26626341 956.7584479 275.51316818 956.7584068 C274.03501877 956.75832593 272.55686936 956.75824233 271.07871995 956.75815602 C248.10313415 956.75693168 225.12760747 956.77192659 202.15203857 956.79930115 C176.29076593 956.8301018 150.42953212 956.84722878 124.56823999 956.8453747 C121.80416858 956.84522546 119.04009718 956.84512804 116.27602577 956.84506607 C115.25528318 956.84503111 115.25528318 956.84503111 114.21391953 956.84499544 C103.31874519 956.84493419 92.42362267 956.85764165 81.52846369 956.8749306 C70.55413248 956.89198344 59.57987965 956.89344659 48.60554256 956.88071196 C42.67406316 956.87422091 36.7427692 956.87392386 30.81130791 956.89141846 C-39.84275696 957.08654849 -101.03118821 939.61954161 -152.30523682 888.82518005 C-157.76314788 883.31529662 -162.77639656 877.55014555 -167.49273682 871.38768005 C-167.92296143 870.82854919 -168.35318604 870.26941833 -168.79644775 869.69334412 C-175.7271379 860.63770141 -181.86140706 851.29839959 -187.49273682 841.38768005 C-187.82869873 840.81146912 -188.16466064 840.23525818 -188.51080322 839.6415863 C-205.22103239 810.89771087 -215.68586982 775.22226971 -215.62695789 741.87543678 C-215.62931012 740.95635438 -215.63166235 740.03727197 -215.63408586 739.09033859 C-215.64073044 736.01777897 -215.64031902 732.94526209 -215.63990784 729.87269592 C-215.64320932 727.64440388 -215.64693548 725.41611244 -215.65104932 723.18782175 C-215.66104555 717.069227 -215.6647823 710.95064206 -215.66743863 704.83204031 C-215.67094714 698.9086308 -215.67909529 692.98522806 -215.68698256 687.06182316 C-215.70779621 671.19401911 -215.71829328 655.32621324 -215.72711217 639.45839872 C-215.73132449 631.9430591 -215.73654579 624.42772026 -215.7417967 616.9123813 C-215.75968734 591.15898961 -215.77467944 565.40559767 -215.78211689 539.6522007 C-215.78259164 538.03623641 -215.78306753 536.42027213 -215.78354455 534.80430784 C-215.78378093 534.0029747 -215.7840173 533.20164156 -215.78426084 532.3760256 C-215.78546197 528.31643385 -215.78667745 524.25684211 -215.78790283 520.19725037 C-215.78814298 519.39162726 -215.78838313 518.58600414 -215.78863056 517.75596821 C-215.79651373 491.66833535 -215.81992502 465.5807481 -215.85245878 439.49313514 C-215.88683456 411.87773214 -215.90647534 384.26235579 -215.90976113 356.64693105 C-215.91017863 353.60920357 -215.91065818 350.5714761 -215.91118431 347.53374863 C-215.9113075 346.78583684 -215.91143069 346.03792505 -215.91155762 345.26734927 C-215.91388037 333.28109425 -215.92948869 321.29489257 -215.95002616 309.3086565 C-215.97038411 297.23455514 -215.97571476 285.16051717 -215.96625552 273.08640184 C-215.96153027 266.55753274 -215.96348307 260.02880092 -215.98301697 253.49995232 C-216.18677554 181.33586399 -199.96805026 119.10442334 -147.93023682 66.57518005 C-142.42035339 61.11726899 -136.65520231 56.10402031 -130.49273682 51.38768005 C-129.93360596 50.95745544 -129.3744751 50.52723083 -128.79840088 50.08396912 C-119.7490969 43.15813028 -110.42024152 36.97947797 -100.49273682 31.38768005 C-99.86866943 31.03576599 -99.24460205 30.68385193 -98.60162354 30.3212738 C-90.93637798 26.0371149 -83.19854768 22.30545604 -75.07476807 18.95018005 C-71.87828411 17.55585772 -68.81933247 16.03978764 -65.73272705 14.42552185 C-59.46420685 11.15629361 -53.19173343 8.34987191 -46.49273682 6.07518005 C-45.83048096 5.8450824 -45.1682251 5.61498474 -44.48590088 5.37791443 C-29.74379704 0.60161285 -15.34325704 -0.04914413 0 0 Z " fill="#8AFE8D" transform="translate(215.49273681640625,-0.3876800537109375)"/>
<path d="M0 0 C2.14032925 -0.00418003 4.28065629 -0.0096612 6.42097926 -0.01631981 C12.26367891 -0.03070533 18.10623667 -0.02655131 23.94894385 -0.019153 C30.26540922 -0.01440647 36.58184455 -0.02694433 42.89830017 -0.03717041 C54.54482049 -0.05334449 66.19128443 -0.0558098 77.83781252 -0.05086542 C88.60154414 -0.0462984 99.36525909 -0.04691966 110.12899017 -0.05270576 C111.57592976 -0.05346265 113.02286934 -0.05421863 114.46980892 -0.05497371 C116.6505482 -0.05611897 118.83128747 -0.05726886 121.01202674 -0.05843295 C141.27225683 -0.06912948 161.53248138 -0.07387199 181.79271317 -0.06596279 C182.93697894 -0.06551703 182.93697894 -0.06551703 184.1043612 -0.06506227 C190.29814873 -0.06261363 196.4919362 -0.06000189 202.68572366 -0.05737813 C226.83606143 -0.04727907 250.98632964 -0.05562808 275.13665771 -0.07887268 C302.30715307 -0.10498224 329.47760656 -0.11778327 356.64811492 -0.11068493 C359.54883432 -0.10996894 362.44955372 -0.10929454 365.35027313 -0.10864449 C366.06443577 -0.10847468 366.7785984 -0.10830487 367.51440232 -0.10812991 C378.26462491 -0.10583314 389.01480845 -0.11377416 399.76502228 -0.12693596 C412.00057633 -0.14189014 424.23601105 -0.14226108 436.47156844 -0.12486505 C442.70798886 -0.11637289 448.94423568 -0.11416193 455.1806469 -0.1295166 C460.90144231 -0.14342679 466.62191641 -0.13851943 472.34269354 -0.11927737 C474.40043008 -0.1155364 476.45819276 -0.11838365 478.51590589 -0.12888902 C495.18209474 -0.20785336 511.68568795 1.44514226 527.31976318 7.63768005 C528.09489258 7.93360046 528.87002197 8.22952087 529.66864014 8.53440857 C536.64409722 11.27832233 543.13970946 14.72446238 549.66693115 18.38475037 C552.1671667 19.74730909 554.71837288 20.99167144 557.27850342 22.23704529 C601.10880776 43.57085783 637.34791638 75.86903514 661.50726318 118.38768005 C661.8432251 118.96389099 662.17918701 119.54010193 662.52532959 120.1337738 C679.23555876 148.87764924 689.70039619 184.5530904 689.64148426 217.89992332 C689.64383649 218.81900573 689.64618872 219.73808813 689.64861223 220.68502152 C689.65525681 223.75758113 689.65484538 226.83009802 689.6544342 229.90266418 C689.65773568 232.13095623 689.66146185 234.35924767 689.66557568 236.58753836 C689.67557192 242.70613311 689.67930866 248.82471805 689.68196499 254.9433198 C689.6854735 260.8667293 689.69362166 266.79013205 689.70150893 272.71353695 C689.72232258 288.581341 689.73281965 304.44914687 689.74163854 320.31696138 C689.74585085 327.83230101 689.75107216 335.34763985 689.75632307 342.86297881 C689.77421371 368.6163705 689.78920581 394.36976243 689.79664326 420.12315941 C689.79711801 421.73912369 689.79759389 423.35508798 689.79807092 424.97105227 C689.79842548 426.17305197 689.79842548 426.17305197 689.79878721 427.3993345 C689.79998834 431.45892625 689.80120381 435.518518 689.8024292 439.57810974 C689.80266935 440.38373285 689.8029095 441.18935596 689.80315693 442.0193919 C689.8110401 468.10702475 689.83445138 494.194612 689.86698514 520.28222497 C689.90136093 547.89762797 689.92100171 575.51300432 689.9242875 603.12842906 C689.92470499 606.16615654 689.92518455 609.20388401 689.92571068 612.24161148 C689.92583387 612.98952327 689.92595706 613.73743505 689.92608399 614.50801083 C689.92840674 626.49426585 689.94401506 638.48046753 689.96455252 650.46670361 C689.98491047 662.54080497 689.99024113 674.61484293 689.98078189 686.68895827 C689.97605663 693.21782737 689.97800944 699.74655919 689.99754333 706.27540779 C690.2013019 778.43949612 673.98257663 840.67093676 621.94476318 893.20018005 C616.43487975 898.65809111 610.66972868 903.67133979 604.50726318 908.38768005 C603.94813232 908.81790466 603.38900146 909.24812927 602.81292725 909.69139099 C593.75938335 916.62047483 584.42371823 922.76966205 574.50726318 928.38768005 C573.61901855 928.899599 573.61901855 928.899599 572.71282959 929.42185974 C553.18513579 940.618809 531.70850532 947.89561561 509.75726318 952.63768005 C509.06237793 952.78882263 508.36749268 952.93996521 507.65155029 953.09568787 C493.08042095 956.05704137 478.78484928 956.68118068 463.97276306 956.65510559 C461.936419 956.65884942 459.90007637 956.66345384 457.86373597 956.66883624 C452.30821641 956.68099148 446.7527574 956.68081464 441.1972276 956.67844748 C435.18942866 956.67803741 429.18164864 956.68909674 423.17385864 956.69856262 C411.41733275 956.71513338 399.66082189 956.72069644 387.90428676 956.72178738 C378.33967966 956.72270909 368.77507902 956.72683936 359.21047401 956.73318863 C356.44986052 956.73498394 353.68924702 956.73676357 350.92863351 956.73853838 C350.24218195 956.73898048 349.5557304 956.73942258 348.84847728 956.73987807 C329.55636303 956.75217548 310.26425102 956.76008034 290.97213268 956.75919151 C290.24575401 956.75916036 289.51937533 956.7591292 288.77098518 956.7590971 C285.0900415 956.7589309 281.40909782 956.75873282 277.72815415 956.75852768 C276.99720878 956.75848779 276.26626341 956.7584479 275.51316818 956.7584068 C274.03501877 956.75832593 272.55686936 956.75824233 271.07871995 956.75815602 C248.10313415 956.75693168 225.12760747 956.77192659 202.15203857 956.79930115 C176.29076593 956.8301018 150.42953212 956.84722878 124.56823999 956.8453747 C121.80416858 956.84522546 119.04009718 956.84512804 116.27602577 956.84506607 C115.25528318 956.84503111 115.25528318 956.84503111 114.21391953 956.84499544 C103.31874519 956.84493419 92.42362267 956.85764165 81.52846369 956.8749306 C70.55413248 956.89198344 59.57987965 956.89344659 48.60554256 956.88071196 C42.67406316 956.87422091 36.7427692 956.87392386 30.81130791 956.89141846 C-39.84275696 957.08654849 -101.03118821 939.61954161 -152.30523682 888.82518005 C-157.76314788 883.31529662 -162.77639656 877.55014555 -167.49273682 871.38768005 C-167.92296143 870.82854919 -168.35318604 870.26941833 -168.79644775 869.69334412 C-175.7271379 860.63770141 -181.86140706 851.29839959 -187.49273682 841.38768005 C-187.82869873 840.81146912 -188.16466064 840.23525818 -188.51080322 839.6415863 C-205.22103239 810.89771087 -215.68586982 775.22226971 -215.62695789 741.87543678 C-215.62931012 740.95635438 -215.63166235 740.03727197 -215.63408586 739.09033859 C-215.64073044 736.01777897 -215.64031902 732.94526209 -215.63990784 729.87269592 C-215.64320932 727.64440388 -215.64693548 725.41611244 -215.65104932 723.18782175 C-215.66104555 717.069227 -215.6647823 710.95064206 -215.66743863 704.83204031 C-215.67094714 698.9086308 -215.67909529 692.98522806 -215.68698256 687.06182316 C-215.70779621 671.19401911 -215.71829328 655.32621324 -215.72711217 639.45839872 C-215.73132449 631.9430591 -215.73654579 624.42772026 -215.7417967 616.9123813 C-215.75968734 591.15898961 -215.77467944 565.40559767 -215.78211689 539.6522007 C-215.78259164 538.03623641 -215.78306753 536.42027213 -215.78354455 534.80430784 C-215.78378093 534.0029747 -215.7840173 533.20164156 -215.78426084 532.3760256 C-215.78546197 528.31643385 -215.78667745 524.25684211 -215.78790283 520.19725037 C-215.78814298 519.39162726 -215.78838313 518.58600414 -215.78863056 517.75596821 C-215.79651373 491.66833535 -215.81992502 465.5807481 -215.85245878 439.49313514 C-215.88683456 411.87773214 -215.90647534 384.26235579 -215.90976113 356.64693105 C-215.91017863 353.60920357 -215.91065818 350.5714761 -215.91118431 347.53374863 C-215.9113075 346.78583684 -215.91143069 346.03792505 -215.91155762 345.26734927 C-215.91388037 333.28109425 -215.92948869 321.29489257 -215.95002616 309.3086565 C-215.97038411 297.23455514 -215.97571476 285.16051717 -215.96625552 273.08640184 C-215.96153027 266.55753274 -215.96348307 260.02880092 -215.98301697 253.49995232 C-216.18677554 181.33586399 -199.96805026 119.10442334 -147.93023682 66.57518005 C-142.42035339 61.11726899 -136.65520231 56.10402031 -130.49273682 51.38768005 C-129.93360596 50.95745544 -129.3744751 50.52723083 -128.79840088 50.08396912 C-119.7490969 43.15813028 -110.42024152 36.97947797 -100.49273682 31.38768005 C-99.86866943 31.03576599 -99.24460205 30.68385193 -98.60162354 30.3212738 C-90.93637798 26.0371149 -83.19854768 22.30545604 -75.07476807 18.95018005 C-71.87828411 17.55585772 -68.81933247 16.03978764 -65.73272705 14.42552185 C-59.46420685 11.15629361 -53.19173343 8.34987191 -46.49273682 6.07518005 C-45.83048096 5.8450824 -45.1682251 5.61498474 -44.48590088 5.37791443 C-29.74379704 0.60161285 -15.34325704 -0.04914413 0 0 Z M-90.49273682 64.38768005 C-100.88065383 77.32403465 -108.6607776 93.26309919 -112.49273682 109.38768005 C-112.65943803 110.03271754 -112.82613925 110.67775502 -112.99789202 111.3423391 C-115.27075171 121.57053955 -114.77645081 132.04029461 -114.76016235 142.45602417 C-114.76390133 144.71990566 -114.76850384 146.98378587 -114.773893 149.24766403 C-114.78610805 155.45507935 -114.78586427 161.66244071 -114.78350425 167.8698653 C-114.78313769 173.88157162 -114.79212534 179.89325971 -114.80073003 185.90495811 C-114.8200474 199.7167173 -114.82569744 213.52846161 -114.82684414 227.34023272 C-114.82776426 238.01104539 -114.83188634 248.68185226 -114.83824539 259.35266304 C-114.84004057 262.42756606 -114.8418202 265.5024691 -114.84359515 268.57737213 C-114.84403724 269.34187568 -114.84447934 270.10637923 -114.84493483 270.89404955 C-114.85723955 292.39208827 -114.86513636 313.89012498 -114.86424828 335.38816738 C-114.86421712 336.19830998 -114.86418596 337.00845258 -114.86415386 337.84314495 C-114.86398765 341.94898871 -114.86378957 346.05483247 -114.86358444 350.16067623 C-114.86354455 350.97606336 -114.86350466 351.7914505 -114.86346356 352.63154633 C-114.86338269 354.28045853 -114.86329909 355.92937074 -114.86321278 357.57828294 C-114.86198797 383.21814048 -114.87698918 408.85794508 -114.90435791 434.49778748 C-114.93511854 463.32691693 -114.95228795 492.15601161 -114.95043147 520.9851585 C-114.95028221 524.06289073 -114.9501848 527.14062295 -114.95012283 530.21835518 C-114.95009952 530.97612798 -114.95007622 531.73390078 -114.9500522 532.51463639 C-114.9499908 544.67882811 -114.96273135 556.84297365 -114.97998736 569.00715166 C-114.99699034 581.24668266 -114.99888138 593.48614654 -114.98576872 605.72568285 C-114.97905454 612.34887904 -114.97907367 618.9719446 -114.99647522 625.59513474 C-115.01227013 631.66954865 -115.00927676 637.74366526 -114.99190696 643.81807221 C-114.98885115 646.00449259 -114.99241526 648.19093551 -115.00362711 650.37732928 C-115.16559295 684.22966741 -105.22123951 713.47493206 -81.30523682 738.07518005 C-67.30461195 751.95371848 -48.64506273 761.83618613 -29.49273682 766.38768005 C-28.49941484 766.63773188 -28.49941484 766.63773188 -27.48602575 766.89283526 C-17.71728404 769.02719186 -7.84805723 768.67187009 2.09501648 768.65510559 C4.19803088 768.65884517 6.30104388 768.66344792 8.4040547 768.66883624 C14.1668098 768.68104389 19.92950675 768.68080839 25.69227183 768.67844748 C31.91406877 768.67803875 38.13584721 768.68908403 44.3576355 768.69856262 C56.54230189 768.71516214 68.72694188 768.72069768 80.91161727 768.72178738 C90.82013024 768.7227077 100.72863696 768.72683084 110.6371479 768.73318863 C113.4929886 768.73498383 116.3488293 768.73676346 119.20467001 768.73853838 C119.9147213 768.73898048 120.6247726 768.73942258 121.35634059 768.73987807 C141.3218414 768.75218193 161.28734004 768.76007968 181.25284481 768.75919151 C182.00515586 768.75916036 182.75746691 768.7591292 183.53257526 768.7590971 C187.3452736 768.75893089 191.15797194 768.75873281 194.97067028 768.75852768 C196.106414 768.75846785 196.106414 768.75846785 197.26510205 768.7584068 C198.79626976 768.75832593 200.32743747 768.75824233 201.85860519 768.75815602 C225.66575066 768.7569313 249.4728391 768.77193103 273.27996826 768.79930115 C300.05232736 768.83006788 326.824649 768.84723081 353.59702688 768.8453747 C356.45569678 768.84522545 359.31436668 768.84512803 362.17303658 768.84506607 C362.87686651 768.84504276 363.58069644 768.84501945 364.30585455 768.84499544 C375.59972401 768.84493406 386.8935437 768.8576697 398.18739839 768.8749306 C409.55317333 768.8919412 420.91885634 768.89347763 432.28464412 768.88071196 C438.43394783 768.87419949 444.58307246 768.87400282 450.73235893 768.89141846 C456.37378157 768.90723065 462.01488432 768.90420275 467.65629954 768.88685019 C469.68525135 768.88379813 471.71422753 768.88734406 473.74315058 768.89857034 C506.68098338 769.06858842 535.84023161 758.95477449 559.69476318 735.63768005 C579.19033214 715.82428311 590.68960427 688.84328935 590.64148426 660.98707104 C590.64383649 660.05578134 590.64618872 659.12449164 590.64861223 658.16498104 C590.65527836 655.03894084 590.65484473 651.91294244 590.6544342 648.78689575 C590.65773432 646.52504199 590.6614602 644.26318882 590.66557568 642.0013364 C590.67558708 635.78103642 590.6793111 629.56074609 590.68196499 623.3404392 C590.68546955 617.32200308 590.69361714 611.30357424 590.70150893 605.28514272 C590.72233569 589.16163896 590.73282075 573.0381334 590.74163854 556.91461934 C590.74584799 549.28313197 590.75106961 541.65164539 590.75632307 534.02015868 C590.77421265 507.88413891 590.78920714 481.7481189 590.79664326 455.61209393 C590.79711801 453.97177855 590.7975939 452.33146317 590.79807092 450.69114779 C590.79830729 449.87771847 590.79854367 449.06428914 590.79878721 448.22621044 C590.79998838 444.10514757 590.80120384 439.98408471 590.8024292 435.86302185 C590.80278942 434.63627743 590.80278942 434.63627743 590.80315693 433.38475029 C590.81104615 406.88133103 590.83447051 380.37795657 590.86698514 353.87455687 C590.90131778 325.83793828 590.92099761 297.8013459 590.9242875 269.76470596 C590.92470502 266.6841388 590.92518458 263.60357167 590.92571068 260.52300453 C590.92583387 259.76451088 590.92595706 259.00601724 590.92608399 258.22453893 C590.92841182 246.04113209 590.94404853 233.85777746 590.96455252 221.6743892 C590.98485384 209.41648566 590.99026753 197.15864453 590.98078189 184.90072729 C590.97603926 178.26565185 590.97810553 171.63070951 590.99754333 164.99564743 C591.01520972 158.9125486 591.01414877 152.82974131 590.99864604 146.74663923 C590.99627528 144.55474912 591.00056564 142.36283863 591.01247469 140.17097958 C591.17907503 107.4624367 580.73053156 78.73616699 557.75726318 55.20018005 C538.17751939 35.93132553 511.29666717 24.20207076 483.71573162 24.25345898 C482.85028849 24.25110675 481.98484537 24.24875452 481.09317669 24.24633101 C478.19112833 24.2396703 475.28912505 24.24009834 472.3870697 24.24050903 C470.28608311 24.23720858 468.18509715 24.23348263 466.08411199 24.22936755 C460.30847332 24.21936 454.53284504 24.21563276 448.75719893 24.21297824 C442.52855783 24.20907148 436.29992492 24.19949338 430.07128906 24.19076538 C415.73867086 24.17194481 401.40605455 24.16174624 387.07342726 24.1533047 C379.9860766 24.14909464 372.89872679 24.1438731 365.81137684 24.13862017 C341.53644743 24.12073073 317.26151777 24.10573656 292.98658276 24.09829998 C291.46317328 24.09782523 289.9397638 24.09734934 288.41635432 24.09687232 C287.2831761 24.09651775 287.2831761 24.09651775 286.12710539 24.09615603 C282.29980447 24.09495487 278.47250355 24.0937394 274.64520264 24.09251404 C273.88567189 24.09227389 273.12614114 24.09203374 272.34359431 24.09178631 C247.73174396 24.08389781 223.11994187 24.06047487 198.50811259 24.02795809 C172.46940793 23.99361917 146.4307315 23.97394504 120.39200383 23.97065574 C117.53049901 23.97023822 114.6689942 23.96975866 111.8074894 23.96923256 C110.75066323 23.96904777 110.75066323 23.96904777 109.67248703 23.96885925 C98.35940217 23.96653218 87.04637358 23.95089976 75.73330873 23.93039071 C64.34916165 23.91008116 52.96510104 23.90501159 41.58093228 23.91416135 C35.41974906 23.9186988 29.25874765 23.91685179 23.09758949 23.8973999 C17.44748233 23.87971619 11.7976889 23.88080831 6.14757816 23.89629719 C4.11315644 23.89866536 2.0787127 23.89439129 0.04432454 23.88246854 C-35.56101197 23.68687374 -66.98792424 37.31745109 -90.49273682 64.38768005 Z " fill="#000000" transform="translate(215.49273681640625,-0.3876800537109375)"/>
<path d="M0 0 C0.58426758 0.41604492 1.16853516 0.83208984 1.77050781 1.26074219 C13.10045111 9.43879514 23.25109484 19.01712112 33 29 C34.33263316 30.33403314 35.66589889 31.66743489 37 33 C36.99000725 31.93884224 36.99000725 31.93884224 36.97981262 30.85624695 C36.91971303 24.19081104 36.87403161 17.5254507 36.84456348 10.85980511 C36.82890426 7.43286777 36.80766196 4.00615423 36.77368164 0.5793457 C36.73486486 -3.35983608 36.72029284 -7.29892709 36.70703125 -11.23828125 C36.69154739 -12.46960281 36.67606354 -13.70092438 36.66011047 -14.96955872 C36.65988388 -16.11051498 36.65965729 -17.25147125 36.65942383 -18.42700195 C36.64943108 -19.93590752 36.64943108 -19.93590752 36.63923645 -21.47529602 C37.06802398 -24.47604702 37.66590328 -25.14818412 40 -27 C43.04184611 -27.29642897 45.87889932 -27.40958451 48.921875 -27.38818359 C49.83432983 -27.39344055 50.74678467 -27.39869751 51.68688965 -27.40411377 C54.7080997 -27.41733576 57.72878443 -27.40856784 60.75 -27.3984375 C62.84602968 -27.4004576 64.94205867 -27.4033685 67.03808594 -27.40713501 C71.43301071 -27.41156135 75.8277527 -27.40511727 80.22265625 -27.39111328 C85.86218821 -27.37402132 91.50129187 -27.38386084 97.14080811 -27.40183067 C101.46959676 -27.41266009 105.79828351 -27.40922602 110.1270752 -27.4014473 C112.20674693 -27.39944296 114.28642786 -27.40191271 116.36608887 -27.40888596 C119.27035098 -27.4164865 122.17391501 -27.40491572 125.078125 -27.38818359 C126.37333069 -27.39729263 126.37333069 -27.39729263 127.69470215 -27.40658569 C133.4179755 -27.3453555 133.4179755 -27.3453555 135.72072852 -25.97897243 C137.74383829 -22.84931737 137.40998276 -19.56305688 137.37752342 -15.95549011 C137.38188374 -15.12224752 137.38624407 -14.28900492 137.39073652 -13.43051255 C137.4017612 -10.61391362 137.39123736 -7.79779724 137.38095093 -4.98120117 C137.38440464 -2.95134574 137.38916727 -0.92149218 137.39513266 1.10835743 C137.40771165 6.70541244 137.40144104 12.30231495 137.39217401 17.89937067 C137.38541198 23.92807226 137.39585055 29.95674682 137.40411377 35.98544312 C137.41671022 47.11944477 137.41557996 58.25339731 137.40737936 69.38739797 C137.39984127 79.6720584 137.39785858 89.9567009 137.4014473 100.24136353 C137.40179103 101.26352506 137.40179103 101.26352506 137.40214171 102.30633632 C137.40307568 105.07232674 137.40403087 107.83831715 137.405021 110.60430755 C137.41420396 136.56672226 137.40586817 162.52910581 137.38973031 188.49151571 C137.37549283 211.57215998 137.37676668 234.6527546 137.39111328 257.73339844 C137.40716713 283.64745057 137.41355279 309.56147516 137.40427649 335.47553158 C137.4033143 338.23656654 137.40237578 340.9976015 137.4014473 343.75863647 C137.40109145 344.77843887 137.40109145 344.77843887 137.40072841 345.81884334 C137.39731184 356.09860696 137.40131454 366.37835071 137.40888596 376.65811157 C137.41744944 388.34328233 137.41505997 400.02840566 137.39904372 411.71357274 C137.39113598 417.68043426 137.38811186 423.64719477 137.39799118 429.61405563 C137.40688696 435.06921065 137.40209027 440.5241704 137.38605852 445.97930753 C137.3826889 447.95974069 137.38445323 449.94019012 137.39168589 451.92061293 C137.40072271 454.59914457 137.39153987 457.27699492 137.37752342 459.95549011 C137.38454692 460.73608949 137.39157042 461.51668886 137.39880675 462.32094276 C137.34447577 467.46583268 137.34447577 467.46583268 135.72352183 469.97939301 C132.48786572 471.89543097 128.62864811 471.40429351 124.97045898 471.37231445 C124.04664429 471.37596512 123.12282959 471.37961578 122.17102051 471.38337708 C119.11252553 471.39149379 116.05455845 471.37786406 112.99609375 471.36328125 C110.87524923 471.36276282 108.75440422 471.36327985 106.63356018 471.36479187 C102.18735589 471.3647021 97.74133274 471.35426181 93.29516602 471.33618164 C87.58610407 471.31348058 81.87730661 471.31295236 76.16821194 471.31969929 C71.78886042 471.32303488 67.40956959 471.31641714 63.03022957 471.30657005 C60.92461527 471.30271172 58.81899423 471.30157244 56.713377 471.3031559 C53.77550173 471.30352529 50.83797028 471.29094237 47.90014648 471.2746582 C47.02373001 471.27713562 46.14731354 471.27961304 45.24433899 471.28216553 C39.22874165 471.22874165 39.22874165 471.22874165 37 469 C36.75949097 466.59555054 36.75949097 466.59555054 36.77294922 463.54052734 C36.77310028 462.39949554 36.77325134 461.25846375 36.77340698 460.08285522 C36.78372955 458.84637238 36.79405212 457.60988953 36.8046875 456.3359375 C36.80893234 454.4424205 36.80893234 454.4424205 36.81326294 452.51065063 C36.82257869 449.15353056 36.84055165 445.79668088 36.8626709 442.43963623 C36.8831245 439.01446878 36.8922636 435.58927341 36.90234375 432.1640625 C36.92443542 425.44263329 36.95793623 418.72133227 37 412 C34.21853331 414.77347822 31.44893364 417.55508626 28.72265625 420.3828125 C20.64778811 428.67547213 12.38877107 436.22489518 3 443 C2.42878418 443.41556152 1.85756836 443.83112305 1.26904297 444.25927734 C-15.05006289 455.99421049 -32.93025329 464.75496121 -52 471 C-52.6894873 471.23412598 -53.37897461 471.46825195 -54.08935547 471.70947266 C-66.75481589 475.9799944 -79.78168591 478.17596741 -93 480 C-93.74443359 480.10602539 -94.48886719 480.21205078 -95.25585938 480.32128906 C-156.72329559 487.79705833 -220.15952328 470.80036846 -269.02734375 432.90625 C-300.99596851 407.63960252 -330.42700255 373.65679324 -345 335 C-345 334.34 -345 333.68 -345 333 C-340.61361471 333.49657192 -336.33931657 334.12530853 -332.015625 335.015625 C-299.17294358 341.01491371 -267.97910009 331.34578806 -241 313 C-240.47792969 313.85980469 -239.95585937 314.71960938 -239.41796875 315.60546875 C-233.97359085 324.41269844 -227.97715841 332.35356392 -221 340 C-220.13632812 340.94746094 -219.27265625 341.89492188 -218.3828125 342.87109375 C-207.5750206 354.17597994 -194.80608795 362.76604087 -181 370 C-179.85402344 370.60585938 -178.70804688 371.21171875 -177.52734375 371.8359375 C-170.47708386 375.41677583 -163.27460776 378.03404297 -155.6875 380.25 C-154.89529053 380.48412598 -154.10308105 380.71825195 -153.28686523 380.95947266 C-138.50994894 385.04667365 -123.84581054 386.53322833 -108.5625 386.375 C-107.75539581 386.37034729 -106.94829163 386.36569458 -106.11672974 386.36090088 C-94.22004753 386.28064601 -82.58259616 385.969156 -71 383 C-70.18337891 382.79068848 -69.36675781 382.58137695 -68.52539062 382.36572266 C-29.04125856 371.90227956 0.90191039 347.81565129 21.43139648 312.68383789 C36.6570812 285.50973219 42.22389798 254.13765321 42.25 223.3125 C42.25067474 222.59034302 42.25134949 221.86818604 42.25204468 221.12414551 C42.18846473 177.95871028 30.58554201 132.77933663 -0.62304688 101.39599609 C-1.85252554 100.149514 -3.0461454 98.8678951 -4.234375 97.58203125 C-28.08660339 72.25024734 -64.64914951 59.35925646 -98.87182617 57.87548828 C-136.19355449 56.90358399 -173.20147619 64.28934665 -203 88 C-203.91136719 88.70898438 -204.82273437 89.41796875 -205.76171875 90.1484375 C-220.34046107 101.73823265 -231.39993781 115.13764558 -241 131 C-241.91265625 130.38125 -241.91265625 130.38125 -242.84375 129.75 C-269.59449728 112.12597826 -300.99450993 103.01812519 -333.08178711 109.07958984 C-334.85375423 109.46794766 -336.61513656 109.90378414 -338.375 110.34375 C-341 111 -341 111 -344 111 C-343.40417492 107.30999362 -342.37430836 104.39547336 -340.6640625 101.078125 C-339.94150269 99.67590698 -339.94150269 99.67590698 -339.2043457 98.24536133 C-338.68316162 97.25689209 -338.16197754 96.26842285 -337.625 95.25 C-337.08770264 94.22737061 -336.55040527 93.20474121 -335.99682617 92.15112305 C-328.79457479 78.6369998 -320.46787182 66.03137501 -311 54 C-310.30648437 53.113125 -309.61296875 52.22625 -308.8984375 51.3125 C-300.47689483 40.77791571 -291.41769047 30.59507427 -281 22 C-280.08347656 21.195625 -279.16695313 20.39125 -278.22265625 19.5625 C-205.38508841 -44.1819114 -88.10146777 -58.85899997 0 0 Z " fill="#000000" transform="translate(568,174)"/>
<path d="M0 0 C16.13276351 14.54944189 27.21233511 33.48583262 28.875 55.55078125 C28.91625 56.35902344 28.9575 57.16726563 29 58 C29.04125 58.77730469 29.0825 59.55460937 29.125 60.35546875 C29.76796918 84.98922551 19.96063172 105.44366499 3.375 123.0625 C-8.25740436 134.37523524 -23.86554037 142.60625551 -40 145 C-40.69996094 145.10957031 -41.39992188 145.21914063 -42.12109375 145.33203125 C-63.4058007 148.17758031 -84.26689403 143.13829887 -102 131 C-105.51318868 128.17007298 -108.76541762 125.14138255 -112 122 C-112.69867188 121.37480469 -113.39734375 120.74960937 -114.1171875 120.10546875 C-125.70169503 109.39994136 -133.686609 92.5928562 -136 77 C-136.10957031 76.30003906 -136.21914062 75.60007812 -136.33203125 74.87890625 C-139.29489985 52.71664909 -133.69255901 30.72538076 -120.39257812 12.76025391 C-107.09471712 -4.04857811 -88.12002783 -16.29583633 -66.65234375 -19.33203125 C-42.49890056 -22.13188943 -18.47603029 -16.23467579 0 0 Z " fill="#000000" transform="translate(310,333)"/>
<path d="M0 0 C0.66 0.33 1.32 0.66 2 1 C-6.91 9.91 -15.82 18.82 -25 28 C-25.66 27.67 -26.32 27.34 -27 27 C-26.43152344 26.443125 -25.86304688 25.88625 -25.27734375 25.3125 C-21.52562525 21.60462462 -17.84816023 17.90147389 -14.4375 13.875 C-11.48185573 10.42330355 -8.27006081 7.4673912 -4.796875 4.54296875 C-3.11316264 3.09717227 -1.54694933 1.58992015 0 0 Z " fill="#142115" transform="translate(290,193)"/>
</svg>
