<?xml version="1.0" encoding="UTF-8"?>
<svg version="1.1" xmlns="http://www.w3.org/2000/svg" width="905" height="956">
<path d="M0 0 C2.14032925 -0.00418003 4.28065629 -0.0096612 6.42097926 -0.01631981 C12.26367891 -0.03070533 18.10623667 -0.02655131 23.94894385 -0.019153 C30.26540922 -0.01440647 36.58184455 -0.02694433 42.89830017 -0.03717041 C54.54482049 -0.05334449 66.19128443 -0.0558098 77.83781252 -0.05086542 C88.60154414 -0.0462984 99.36525909 -0.04691966 110.12899017 -0.05270576 C111.57592976 -0.05346265 113.02286934 -0.05421863 114.46980892 -0.05497371 C116.6505482 -0.05611897 118.83128747 -0.05726886 121.01202674 -0.05843295 C141.27225683 -0.06912948 161.53248138 -0.07387199 181.79271317 -0.06596279 C182.93697894 -0.06551703 182.93697894 -0.06551703 184.1043612 -0.06506227 C190.29814873 -0.06261363 196.4919362 -0.06000189 202.68572366 -0.05737813 C226.83606143 -0.04727907 250.98632964 -0.05562808 275.13665771 -0.07887268 C302.30715307 -0.10498224 329.47760656 -0.11778327 356.64811492 -0.11068493 C359.54883432 -0.10996894 362.44955372 -0.10929454 365.35027313 -0.10864449 C366.06443577 -0.10847468 366.7785984 -0.10830487 367.51440232 -0.10812991 C378.26462491 -0.10583314 389.01480845 -0.11377416 399.76502228 -0.12693596 C412.00057633 -0.14189014 424.23601105 -0.14226108 436.47156844 -0.12486505 C442.70798886 -0.11637289 448.94423568 -0.11416193 455.1806469 -0.1295166 C460.90144231 -0.14342679 466.62191641 -0.13851943 472.34269354 -0.11927737 C474.40043008 -0.1155364 476.45819276 -0.11838365 478.51590589 -0.12888902 C495.18209474 -0.20785336 511.68568795 1.44514226 527.31976318 7.63768005 C528.09489258 7.93360046 528.87002197 8.22952087 529.66864014 8.53440857 C536.64409722 11.27832233 543.13970946 14.72446238 549.66693115 18.38475037 C552.1671667 19.74730909 554.71837288 20.99167144 557.27850342 22.23704529 C601.10880776 43.57085783 637.34791638 75.86903514 661.50726318 118.38768005 C661.8432251 118.96389099 662.17918701 119.54010193 662.52532959 120.1337738 C679.23555876 148.87764924 689.70039619 184.5530904 689.64148426 217.89992332 C689.64383649 218.81900573 689.64618872 219.73808813 689.64861223 220.68502152 C689.65525681 223.75758113 689.65484538 226.83009802 689.6544342 229.90266418 C689.65773568 232.13095623 689.66146185 234.35924767 689.66557568 236.58753836 C689.67557192 242.70613311 689.67930866 248.82471805 689.68196499 254.9433198 C689.6854735 260.8667293 689.69362166 266.79013205 689.70150893 272.71353695 C689.72232258 288.581341 689.73281965 304.44914687 689.74163854 320.31696138 C689.74585085 327.83230101 689.75107216 335.34763985 689.75632307 342.86297881 C689.77421371 368.6163705 689.78920581 394.36976243 689.79664326 420.12315941 C689.79711801 421.73912369 689.79759389 423.35508798 689.79807092 424.97105227 C689.79842548 426.17305197 689.79842548 426.17305197 689.79878721 427.3993345 C689.79998834 431.45892625 689.80120381 435.518518 689.8024292 439.57810974 C689.80266935 440.38373285 689.8029095 441.18935596 689.80315693 442.0193919 C689.8110401 468.10702475 689.83445138 494.194612 689.86698514 520.28222497 C689.90136093 547.89762797 689.92100171 575.51300432 689.9242875 603.12842906 C689.92470499 606.16615654 689.92518455 609.20388401 689.92571068 612.24161148 C689.92583387 612.98952327 689.92595706 613.73743505 689.92608399 614.50801083 C689.92840674 626.49426585 689.94401506 638.48046753 689.96455252 650.46670361 C689.98491047 662.54080497 689.99024113 674.61484293 689.98078189 686.68895827 C689.97605663 693.21782737 689.97800944 699.74655919 689.99754333 706.27540779 C690.2013019 778.43949612 673.98257663 840.67093676 621.94476318 893.20018005 C616.43487975 898.65809111 610.66972868 903.67133979 604.50726318 908.38768005 C603.94813232 908.81790466 603.38900146 909.24812927 602.81292725 909.69139099 C593.75938335 916.62047483 584.42371823 922.76966205 574.50726318 928.38768005 C573.61901855 928.899599 573.61901855 928.899599 572.71282959 929.42185974 C553.18513579 940.618809 531.70850532 947.89561561 509.75726318 952.63768005 C509.06237793 952.78882263 508.36749268 952.93996521 507.65155029 953.09568787 C493.08042095 956.05704137 478.78484928 956.68118068 463.97276306 956.65510559 C461.936419 956.65884942 459.90007637 956.66345384 457.86373597 956.66883624 C452.30821641 956.68099148 446.7527574 956.68081464 441.1972276 956.67844748 C435.18942866 956.67803741 429.18164864 956.68909674 423.17385864 956.69856262 C411.41733275 956.71513338 399.66082189 956.72069644 387.90428676 956.72178738 C378.33967966 956.72270909 368.77507902 956.72683936 359.21047401 956.73318863 C356.44986052 956.73498394 353.68924702 956.73676357 350.92863351 956.73853838 C350.24218195 956.73898048 349.5557304 956.73942258 348.84847728 956.73987807 C329.55636303 956.75217548 310.26425102 956.76008034 290.97213268 956.75919151 C290.24575401 956.75916036 289.51937533 956.7591292 288.77098518 956.7590971 C285.0900415 956.7589309 281.40909782 956.75873282 277.72815415 956.75852768 C276.99720878 956.75848779 276.26626341 956.7584479 275.51316818 956.7584068 C274.03501877 956.75832593 272.55686936 956.75824233 271.07871995 956.75815602 C248.10313415 956.75693168 225.12760747 956.77192659 202.15203857 956.79930115 C176.29076593 956.8301018 150.42953212 956.84722878 124.56823999 956.8453747 C121.80416858 956.84522546 119.04009718 956.84512804 116.27602577 956.84506607 C115.25528318 956.84503111 115.25528318 956.84503111 114.21391953 956.84499544 C103.31874519 956.84493419 92.42362267 956.85764165 81.52846369 956.8749306 C70.55413248 956.89198344 59.57987965 956.89344659 48.60554256 956.88071196 C42.67406316 956.87422091 36.7427692 956.87392386 30.81130791 956.89141846 C-39.84275696 957.08654849 -101.03118821 939.61954161 -152.30523682 888.82518005 C-157.76314788 883.31529662 -162.77639656 877.55014555 -167.49273682 871.38768005 C-167.92296143 870.82854919 -168.35318604 870.26941833 -168.79644775 869.69334412 C-175.7271379 860.63770141 -181.86140706 851.29839959 -187.49273682 841.38768005 C-187.82869873 840.81146912 -188.16466064 840.23525818 -188.51080322 839.6415863 C-205.22103239 810.89771087 -215.68586982 775.22226971 -215.62695789 741.87543678 C-215.62931012 740.95635438 -215.63166235 740.03727197 -215.63408586 739.09033859 C-215.64073044 736.01777897 -215.64031902 732.94526209 -215.63990784 729.87269592 C-215.64320932 727.64440388 -215.64693548 725.41611244 -215.65104932 723.18782175 C-215.66104555 717.069227 -215.6647823 710.95064206 -215.66743863 704.83204031 C-215.67094714 698.9086308 -215.67909529 692.98522806 -215.68698256 687.06182316 C-215.70779621 671.19401911 -215.71829328 655.32621324 -215.72711217 639.45839872 C-215.73132449 631.9430591 -215.73654579 624.42772026 -215.7417967 616.9123813 C-215.75968734 591.15898961 -215.77467944 565.40559767 -215.78211689 539.6522007 C-215.78259164 538.03623641 -215.78306753 536.42027213 -215.78354455 534.80430784 C-215.78378093 534.0029747 -215.7840173 533.20164156 -215.78426084 532.3760256 C-215.78546197 528.31643385 -215.78667745 524.25684211 -215.78790283 520.19725037 C-215.78814298 519.39162726 -215.78838313 518.58600414 -215.78863056 517.75596821 C-215.79651373 491.66833535 -215.81992502 465.5807481 -215.85245878 439.49313514 C-215.88683456 411.87773214 -215.90647534 384.26235579 -215.90976113 356.64693105 C-215.91017863 353.60920357 -215.91065818 350.5714761 -215.91118431 347.53374863 C-215.9113075 346.78583684 -215.91143069 346.03792505 -215.91155762 345.26734927 C-215.91388037 333.28109425 -215.92948869 321.29489257 -215.95002616 309.3086565 C-215.97038411 297.23455514 -215.97571476 285.16051717 -215.96625552 273.08640184 C-215.96153027 266.55753274 -215.96348307 260.02880092 -215.98301697 253.49995232 C-216.18677554 181.33586399 -199.96805026 119.10442334 -147.93023682 66.57518005 C-142.42035339 61.11726899 -136.65520231 56.10402031 -130.49273682 51.38768005 C-129.93360596 50.95745544 -129.3744751 50.52723083 -128.79840088 50.08396912 C-119.7490969 43.15813028 -110.42024152 36.97947797 -100.49273682 31.38768005 C-99.86866943 31.03576599 -99.24460205 30.68385193 -98.60162354 30.3212738 C-90.93637798 26.0371149 -83.19854768 22.30545604 -75.07476807 18.95018005 C-71.87828411 17.55585772 -68.81933247 16.03978764 -65.73272705 14.42552185 C-59.46420685 11.15629361 -53.19173343 8.34987191 -46.49273682 6.07518005 C-45.83048096 5.8450824 -45.1682251 5.61498474 -44.48590088 5.37791443 C-29.74379704 0.60161285 -15.34325704 -0.04914413 0 0 Z M-88.03521729 62.7275238 C-110.23553192 88.01431434 -114.98644829 119.5914318 -114.87368774 152.04441833 C-114.87715345 154.25022169 -114.88192408 156.4560233 -114.88786948 158.66182137 C-114.90028375 164.66232067 -114.89425313 170.6626751 -114.88491082 176.66317463 C-114.87878457 182.48914144 -114.88683813 188.31507866 -114.89435292 194.14104134 C-114.91007824 206.77759344 -114.90880982 219.41409978 -114.90011618 232.05065614 C-114.89254597 243.10963725 -114.89061034 254.16860167 -114.89418411 265.22758484 C-114.89441327 265.96340287 -114.89464242 266.6992209 -114.89487852 267.45733644 C-114.89581266 270.44485265 -114.89676787 273.43236885 -114.89775781 276.41988505 C-114.90691859 304.40005538 -114.89864024 332.38019671 -114.88246712 360.36036256 C-114.86823211 385.17612455 -114.86950607 409.99184034 -114.8838501 434.80760193 C-114.89994147 462.73917537 -114.9062687 490.67072321 -114.89701331 518.60230064 C-114.89605127 521.58412551 -114.89511274 524.56595039 -114.89418411 527.54777527 C-114.89394688 528.28188523 -114.89370965 529.0159952 -114.89346523 529.77235092 C-114.89006413 540.81977319 -114.89402242 551.86717687 -114.90162277 562.91459656 C-114.91022884 575.48594966 -114.90799606 588.05725017 -114.89178054 600.62859678 C-114.8839287 607.03526873 -114.88075332 613.44184725 -114.890728 619.84851837 C-114.89973964 625.72578757 -114.89463658 631.60287771 -114.87879534 637.48013091 C-114.87547473 639.5935892 -114.87707936 641.70706296 -114.8844227 643.8205111 C-115.0005066 680.03980389 -106.91640387 710.82235335 -81.18023682 737.13768005 C-55.72031356 762.2953087 -22.91742183 768.89872218 11.68341064 768.76863098 C13.72834697 768.77209781 15.77328141 768.77686918 17.81821203 768.78281271 C23.37405392 768.79521166 28.92973908 768.78920355 34.48558116 768.77985406 C40.50204011 768.77301786 46.51847361 768.78356728 52.53492737 768.79179382 C63.61831538 768.80431894 74.70166079 768.80329588 85.78504904 768.79505942 C96.02739452 768.78748616 106.26972198 768.78555497 116.5120697 768.78912735 C117.53469546 768.78947108 117.53469546 768.78947108 118.57798032 768.78982176 C121.34604559 768.79075591 124.11411084 768.79171113 126.88217609 768.79270105 C152.80169105 768.80185974 178.72117469 768.7935868 204.64068481 768.77741036 C227.62373422 768.76317558 250.60673374 768.76444955 273.58978271 768.77879333 C299.46458592 768.79488824 325.33936151 768.80120998 351.21416903 768.79195654 C353.97693157 768.79099452 356.73969411 768.79005599 359.50245667 768.78912735 C360.18262376 768.78889012 360.86279086 768.78865289 361.56356908 768.78840846 C371.79466057 768.78500882 382.02573197 768.78896292 392.25682068 768.79656601 C403.90041734 768.80517611 415.54396657 768.80264454 427.18755805 768.78672378 C433.12032013 768.77887716 439.05298139 768.77568745 444.98574257 768.78567123 C450.43001788 768.79469395 455.87410013 768.78956217 461.31835824 768.77373858 C463.27434772 768.77042254 465.23035394 768.77201191 467.1863324 768.77936594 C502.80271165 768.90286907 533.18581155 760.56435847 559.13226318 735.26268005 C583.08433982 711.16226523 590.85926051 680.00833622 590.9084934 646.7984333 C590.90201123 644.77593522 590.89524144 642.75343804 590.88821411 640.73094177 C590.89167982 638.52513842 590.89645045 636.31933681 590.90239584 634.11353874 C590.91481011 628.11303944 590.90877949 622.112685 590.89943719 616.11218548 C590.89331094 610.28621866 590.9013645 604.46028145 590.90887929 598.63431877 C590.9246046 585.99776667 590.92333618 573.36126032 590.91464255 560.72470397 C590.90707233 549.66572286 590.9051367 538.60675844 590.90871048 527.54777527 C590.90893964 526.81195724 590.90916879 526.07613921 590.90940489 525.31802367 C590.91033903 522.33050746 590.91129424 519.34299125 590.91228418 516.35547506 C590.92144495 488.37530473 590.91316661 460.3951634 590.89699349 432.41499755 C590.88275848 407.59923556 590.88403244 382.78351977 590.89837646 357.96775818 C590.91446783 330.03618474 590.92079507 302.10463689 590.91153967 274.17305946 C590.91057764 271.19123459 590.90963911 268.20940972 590.90871048 265.22758484 C590.90847325 264.49347487 590.90823602 263.75936491 590.90799159 263.00300919 C590.9045905 251.95558691 590.90854879 240.90818324 590.91614914 229.86076355 C590.92475521 217.28941045 590.92252243 204.71810993 590.90630691 192.14676332 C590.89845506 185.74009138 590.89527968 179.33351286 590.90525436 172.92684174 C590.91426601 167.04957254 590.90916295 161.1724824 590.89332171 155.2952292 C590.89000109 153.18177091 590.89160572 151.06829714 590.89894907 148.954849 C591.01474349 112.8258743 583.10847759 82.14448629 557.38226318 55.76268005 C533.62186973 32.14853195 502.74874967 24.03893495 469.93876791 23.98644984 C468.06954953 23.99293153 466.20033213 23.9997013 464.33111572 24.00672913 C462.2861794 24.0032623 460.24124496 23.99849093 458.19631433 23.99254739 C452.64047245 23.98014845 447.08478729 23.98615655 441.52894521 23.99550605 C435.51248626 24.00234224 429.49605276 23.99179283 423.479599 23.98356628 C412.39621099 23.97104117 401.31286558 23.97206423 390.22947733 23.98030069 C379.98713184 23.98787394 369.74480438 23.98980513 359.50245667 23.98623276 C358.47983091 23.98588902 358.47983091 23.98588902 357.43654605 23.98553835 C354.66848078 23.9846042 351.90041552 23.98364898 349.13235028 23.98265906 C323.21283532 23.97350036 297.29335168 23.98177331 271.37384156 23.99794975 C248.39079215 24.01218452 225.40779263 24.01091056 202.42474365 23.99656677 C176.54994044 23.98047187 150.67516486 23.97415013 124.80035734 23.98340356 C122.0375948 23.98436559 119.27483225 23.98530412 116.5120697 23.98623276 C115.83190261 23.98646999 115.15173551 23.98670722 114.45095729 23.98695164 C104.21986579 23.99035129 93.98879439 23.98639719 83.75770569 23.9787941 C72.11410903 23.97018399 60.4705598 23.97271557 48.82696831 23.98863633 C42.89420623 23.99648295 36.96154497 23.99967265 31.0287838 23.98968887 C25.58450848 23.98066616 20.14042624 23.98579794 14.69616812 24.00162153 C12.74017865 24.00493756 10.78417242 24.0033482 8.82819396 23.99599417 C-29.50935292 23.86305513 -61.71526246 34.07226512 -88.03521729 62.7275238 Z " fill="#000000" transform="translate(215.49273681640625,-0.3876800537109375)"/>
<path d="M0 0 C3.3569065 3.31331032 6.41412753 6.58227912 9.21875 10.375 C9.22461624 9.69261765 9.23048248 9.01023529 9.23652649 8.30717468 C9.3003567 1.21826015 9.38474941 -5.87019602 9.48120117 -12.95874023 C9.51449872 -15.60581426 9.54251542 -18.25296011 9.56518555 -20.90014648 C9.59864211 -24.7006701 9.65095486 -28.50053255 9.70703125 -32.30078125 C9.71342117 -33.48835526 9.7198111 -34.67592926 9.72639465 -35.89949036 C9.75608589 -37.5508625 9.75608589 -37.5508625 9.78637695 -39.2355957 C9.79748001 -40.20600296 9.80858307 -41.17641022 9.82002258 -42.17622375 C10.29639858 -45.10187715 10.93248642 -45.80733736 13.21875 -47.625 C15.07878113 -48.00252342 15.07878113 -48.00252342 17.20385742 -48.00595093 C18.01140472 -48.0144104 18.81895203 -48.02286987 19.65097046 -48.03158569 C20.5331424 -48.025513 21.41531433 -48.01944031 22.32421875 -48.01318359 C23.72216171 -48.02106903 23.72216171 -48.02106903 25.14834595 -48.02911377 C28.23448355 -48.04233695 31.32010698 -48.03356739 34.40625 -48.0234375 C36.54712015 -48.02545757 38.68798963 -48.02836844 40.82885742 -48.03213501 C45.31793767 -48.03656151 49.80683897 -48.03011673 54.29589844 -48.01611328 C60.0564956 -47.99902133 65.81667348 -48.00886076 71.57725525 -48.02683067 C75.99868949 -48.03765964 80.42002397 -48.03422623 84.84146118 -48.0264473 C86.9657903 -48.02444284 89.0901284 -48.02691314 91.21444702 -48.03388596 C94.18096998 -48.04148575 97.14680934 -48.0299167 100.11328125 -48.01318359 C101.43653915 -48.02229263 101.43653915 -48.02229263 102.78652954 -48.03158569 C103.99785049 -48.01889648 103.99785049 -48.01889648 105.23364258 -48.00595093 C105.93491776 -48.00481985 106.63619293 -48.00368877 107.35871887 -48.00252342 C109.98161648 -47.4701639 110.65398756 -46.82510266 112.21875 -44.625 C112.51379907 -41.86949165 112.62286861 -39.3398709 112.59906673 -36.58328342 C112.60372665 -35.75034042 112.60838657 -34.91739742 112.6131877 -34.05921373 C112.6252219 -31.24362914 112.61571002 -28.42851965 112.60643005 -25.6129303 C112.61059929 -23.58378711 112.61607453 -21.55464626 112.62274987 -19.52550977 C112.63727706 -13.93038994 112.63293715 -8.33541648 112.62558305 -2.74028838 C112.62087159 3.28639086 112.63334324 9.31303749 112.64360046 15.33970642 C112.65983644 26.47022826 112.66222549 37.60070444 112.65729547 48.73123187 C112.65274335 59.01330226 112.65333114 69.29535518 112.65913582 79.577425 C112.65989267 80.9551183 112.66064865 82.33281161 112.66140376 83.71050491 C112.66254892 85.78640846 112.6636988 87.862312 112.66486301 89.93821554 C112.67557274 109.24569443 112.6802884 128.55316748 112.67239285 147.86064816 C112.67209567 148.58891648 112.6717985 149.31718481 112.67149232 150.06752187 C112.66904323 155.98207724 112.66643172 161.89663254 112.66380819 167.81118783 C112.65370465 190.88513918 112.66206125 213.95901778 112.68530273 237.03295898 C112.7113563 262.94079709 112.72422836 288.84859138 112.71711498 314.75644308 C112.71639889 317.51721512 112.71572451 320.27798717 112.71507454 323.03875923 C112.71490473 323.71856007 112.71473492 324.39836092 112.71455997 325.09876179 C112.71225388 335.37498493 112.72024868 345.65116748 112.73336601 355.92738152 C112.74825171 367.60996987 112.74877901 379.29247925 112.7312951 390.97507136 C112.7227478 396.94006146 112.7207261 402.90486929 112.73594666 408.86985016 C112.74969313 414.32448976 112.74516102 419.77878922 112.72570742 425.23340864 C112.72191604 427.21251464 112.72495855 429.19164724 112.73531907 431.17072975 C112.74835397 433.8500509 112.73702738 436.52817433 112.71932125 439.20744228 C112.72897176 439.98541464 112.73862227 440.763387 112.74856523 441.56493428 C112.70020209 445.10108727 112.49788238 447.01261016 110.30927998 449.85401207 C108.01601104 451.52250495 106.99343375 451.87676957 104.19604492 451.88293457 C103.40539642 451.89421387 102.61474792 451.90549316 101.80014038 451.91711426 C100.51268417 451.90496887 100.51268417 451.90496887 99.19921875 451.89257812 C97.8327269 451.90309204 97.8327269 451.90309204 96.43862915 451.91381836 C93.42752597 451.93142252 90.41736273 451.91976689 87.40625 451.90625 C85.31404439 451.90894421 83.22183999 451.91282604 81.12963867 451.91784668 C76.74483316 451.92374502 72.36035357 451.91516779 67.97558594 451.89648438 C62.35288042 451.87369485 56.7309386 451.8868161 51.10826111 451.91077423 C46.78798663 451.92522301 42.46789344 451.9206304 38.14761353 451.91026306 C36.07435008 451.90759324 34.00107021 451.91087448 31.92782593 451.92018127 C29.03086704 451.93033154 26.13514772 451.91486689 23.23828125 451.89257812 C22.37997711 451.90067505 21.52167297 451.90877197 20.63735962 451.91711426 C16.90961627 451.86393472 14.8393817 451.79065627 11.68914795 449.68084717 C9.91051556 446.89163322 9.70366214 445.26059887 9.67285156 441.96386719 C9.65313293 440.88304871 9.63341431 439.80223022 9.61309814 438.68865967 C9.61125519 436.94785126 9.61125519 436.94785126 9.609375 435.171875 C9.59283875 433.97894836 9.57630249 432.78602173 9.55926514 431.5569458 C9.5106747 427.7462454 9.48938862 423.9359444 9.46875 420.125 C9.44059973 417.54164645 9.41067365 414.9583116 9.37890625 412.375 C9.30491253 406.04173944 9.25333473 399.70859172 9.21875 393.375 C8.61184326 394.05119385 8.00493652 394.7273877 7.37963867 395.42407227 C6.5776001 396.31666748 5.77556152 397.2092627 4.94921875 398.12890625 C4.15668701 399.0113501 3.36415527 399.89379395 2.54760742 400.80297852 C-4.86681584 408.99156737 -12.97851847 415.7448464 -21.78125 422.375 C-22.61527344 423.0040625 -23.44929688 423.633125 -24.30859375 424.28125 C-60.68416835 450.64576903 -104.49575806 461.58828609 -148.96875 461.625 C-149.71113922 461.62567474 -150.45352844 461.62634949 -151.21841431 461.62704468 C-196.95500374 461.56156594 -244.23791573 449.27612928 -281.78125 422.375 C-282.9389462 421.5790423 -284.09785016 420.78483906 -285.2578125 419.9921875 C-301.72849195 408.62256908 -318.2199633 395.0080424 -330.78125 379.375 C-331.68972227 378.27832936 -332.59861912 377.18201038 -333.5078125 376.0859375 C-340.52786141 367.54779596 -346.91623316 358.74309321 -352.78125 349.375 C-353.19616699 348.71274414 -353.61108398 348.05048828 -354.03857422 347.36816406 C-371.78125 318.75886678 -371.78125 318.75886678 -371.78125 311.375 C-371.11222656 311.49617188 -370.44320312 311.61734375 -369.75390625 311.7421875 C-334.83792522 317.83490902 -303.17417398 314.92713581 -272.78125 295.375 C-271.43609453 294.39096009 -270.09816136 293.39652937 -268.78125 292.375 C-264.93130497 293.85317846 -263.63658978 295.79679796 -261.59375 299.3125 C-242.62681368 330.12376787 -210.21735246 352.00290995 -175.34375 360.75 C-134.96008641 369.95390727 -89.54908823 366.68972321 -53.78125 344.375 C-17.96242776 321.03320186 3.42056059 284.61160714 12.21875 243.375 C12.39809082 242.53791504 12.57743164 241.70083008 12.76220703 240.83837891 C20.8933952 200.42467801 15.8672115 154.49791879 -1.78125 117.375 C-2.09288086 116.71064941 -2.40451172 116.04629883 -2.72558594 115.36181641 C-7.78790234 104.74166586 -14.42474526 95.5231066 -21.78125 86.375 C-22.49410156 85.48683594 -23.20695312 84.59867188 -23.94140625 83.68359375 C-28.92353341 77.80120542 -34.68735728 73.06712952 -40.78125 68.375 C-41.63460938 67.70597656 -42.48796875 67.03695312 -43.3671875 66.34765625 C-69.7649037 46.33136994 -101.61321219 37.8859613 -134.46875 38.0625 C-135.16169159 38.06399048 -135.85463318 38.06548096 -136.568573 38.0670166 C-148.17024168 38.11163776 -159.42606148 38.88615517 -170.78125 41.375 C-171.44817871 41.51953613 -172.11510742 41.66407227 -172.80224609 41.81298828 C-199.97698662 47.92781278 -222.702028 61.23800686 -242.78125 80.375 C-243.3182251 80.88498535 -243.8552002 81.3949707 -244.40844727 81.92041016 C-248.71903717 86.10709505 -252.4082114 90.54118687 -255.96875 95.375 C-256.47599609 96.04789063 -256.98324219 96.72078125 -257.50585938 97.4140625 C-260.60832207 101.58287099 -263.29239502 105.8130892 -265.78125 110.375 C-269.65035662 109.72860987 -272.33590816 107.87271959 -275.59375 105.75 C-305.77312255 86.67207857 -337.53251762 85.17195406 -371.78125 91.375 C-362.2137157 67.55722975 -348.53599195 45.79808974 -331.78125 26.375 C-331.14703125 25.62992187 -330.5128125 24.88484375 -329.859375 24.1171875 C-317.18799844 9.62859803 -303.52085636 -3.52933527 -287.78125 -14.625 C-287.0809668 -15.12692871 -286.38068359 -15.62885742 -285.65917969 -16.14599609 C-269.07982863 -27.9607737 -250.9794261 -37.79027518 -231.78125 -44.625 C-230.62367188 -45.05039063 -229.46609375 -45.47578125 -228.2734375 -45.9140625 C-149.82135453 -73.53326234 -60.60040661 -57.19588938 0 0 Z " fill="#020202" transform="translate(593.78125,194.625)"/>
<path d="M0 0 C17.49648465 13.51524862 30.14925103 32.91929992 33.125 55.125 C35.20585216 80.30988227 29.53411645 102.55560927 13.125 122.125 C-0.3167243 137.63468188 -20.06322785 148.65333679 -40.68212891 150.35693359 C-66.51889412 151.6928094 -87.79213699 144.93014794 -107.453125 127.890625 C-122.43573775 113.82719094 -132.19838371 93.88985635 -133.26171875 73.32421875 C-134.00804826 47.44118231 -126.07776598 25.99297944 -108.25 7 C-78.25838218 -21.9780762 -33.48161572 -23.26289475 0 0 Z " fill="#010101" transform="translate(305.875,328.875)"/>
</svg>
